<svg width="94" height="265.25" viewBox="0 0 94 265.25" fill="rgba(127, 127, 127, 0.1)" xmlns="http://www.w3.org/2000/svg">
<!-- TODO: Fix the alignments somehow -->
<path d="M-11.3327 12.9434L-12.179 11.5838L-11.303 10.744L-11.7901 9.96136L-15.4845 12.2609L-16.31 11.2747L-16.3223 2.65062L-14.0141 1.21392L-10.3728 7.06387L-9.43102 6.47763L-8.5269 7.93017L-9.46872 8.51641L-8.98157 9.29905L-7.85457 8.89203L-7.00824 10.2517L-11.3327 12.9434ZM-14.4718 9.61524L-12.6943 8.50882L-14.453 5.68333L-14.501 5.69484L-14.5356 6.03845L-14.4718 9.61524ZM-2.74302 7.79009C-3.79096 8.44238 -4.82646 8.6268 -5.8495 8.34336C-6.87254 8.05992 -7.79002 7.26599 -8.60195 5.96158L-9.86937 3.92537C-10.6785 2.62539 -10.9858 1.45164 -10.7912 0.404149C-10.5966 -0.643347 -9.97977 -1.49049 -8.94066 -2.13727C-7.9104 -2.77856 -6.88237 -2.95526 -5.85658 -2.6674C-4.82636 -2.38229 -3.90667 -1.58973 -3.0975 -0.289747L-1.83007 1.74646C-1.01815 3.05087 -0.710864 4.22461 -0.90822 5.26768C-1.10115 6.30801 -1.71275 7.14881 -2.74302 7.79009ZM-3.8453 6.01919C-3.50483 5.80726 -3.34028 5.49012 -3.35165 5.06775C-3.36577 4.64097 -3.60265 4.05836 -4.06228 3.31993L-5.5031 1.00516C-5.95447 0.279993 -6.37072 -0.181762 -6.75185 -0.380109C-7.13297 -0.578456 -7.49377 -0.571666 -7.83424 -0.35974C-8.18798 -0.139558 -8.35779 0.183927 -8.34367 0.610713C-8.3323 1.03308 -8.09955 1.60905 -7.64542 2.33864L-6.2046 4.65341C-5.74222 5.39626 -5.32405 5.86603 -4.9501 6.0627C-4.57615 6.25938 -4.20789 6.24488 -3.8453 6.01919ZM4.00186 3.39853L3.15553 2.03885L4.03157 1.19908L3.54442 0.416438L-0.149933 2.71597L-0.975416 1.72981L-0.98771 -6.8943L1.32043 -8.33099L4.9617 -2.48105L5.90353 -3.06728L6.80765 -1.61475L5.86583 -1.02851L6.35298 -0.245865L7.47998 -0.652886L8.32631 0.706795L4.00186 3.39853ZM0.862761 0.0703181L2.6403 -1.0361L0.881586 -3.86158L0.833534 -3.85008L0.798949 -3.50647L0.862761 0.0703181Z"/>
<path d="M1.87824 34.1677L1.03192 32.808L1.90796 31.9682L1.42081 31.1856L-2.27355 33.4851L-3.09903 32.499L-3.11132 23.8749L-0.803182 22.4382L2.83809 28.2881L3.77992 27.7019L4.68404 29.1544L3.74221 29.7406L4.22937 30.5233L5.35637 30.1163L6.20269 31.476L1.87824 34.1677ZM-1.26085 30.8395L0.516682 29.7331L-1.24203 26.9076L-1.29008 26.9191L-1.32466 27.2627L-1.26085 30.8395ZM10.4679 29.0143C9.41997 29.6666 8.38448 29.851 7.36144 29.5676C6.3384 29.2842 5.42091 28.4902 4.60899 27.1858L3.34156 25.1496C2.53239 23.8496 2.22511 22.6759 2.41971 21.6284C2.61432 20.5809 3.23117 19.7338 4.27028 19.087C5.30054 18.4457 6.32857 18.269 7.35436 18.5568C8.38458 18.842 9.30427 19.6345 10.1134 20.9345L11.3809 22.9707C12.1928 24.2751 12.5001 25.4489 12.3027 26.4919C12.1098 27.5322 11.4982 28.3731 10.4679 29.0143ZM9.36563 27.2434C9.70611 27.0315 9.87066 26.7144 9.85929 26.292C9.84517 25.8652 9.60829 25.2826 9.14866 24.5442L7.70784 22.2294C7.25647 21.5042 6.84022 21.0425 6.45909 20.8441C6.07797 20.6458 5.71717 20.6526 5.3767 20.8645C5.02296 21.0847 4.85315 21.4082 4.86727 21.835C4.87864 22.2573 5.11139 22.8333 5.56551 23.5629L7.00633 25.8777C7.46872 26.6205 7.88688 27.0903 8.26083 27.2869C8.63479 27.4836 9.00305 27.4691 9.36563 27.2434ZM17.2128 24.6228L16.3665 23.2631L17.2425 22.4233L16.7554 21.6407L13.061 23.9402L12.2355 22.9541L12.2232 14.3299L14.5314 12.8932L18.1726 18.7432L19.1145 18.157L20.0186 19.6095L19.0768 20.1957L19.5639 20.9784L20.6909 20.5714L21.5372 21.931L17.2128 24.6228ZM14.0737 21.2946L15.8512 20.1881L14.0925 17.3627L14.0445 17.3742L14.0099 17.7178L14.0737 21.2946Z"/>
<path d="M35.8371 13.0302L34.9908 11.6706L35.8668 10.8308L35.3797 10.0481L31.6853 12.3477L30.8598 11.3615L30.8475 2.73741L33.1557 1.30072L36.797 7.15066L37.7388 6.56442L38.6429 8.01696L37.7011 8.6032L38.1882 9.38584L39.3152 8.97882L40.1616 10.3385L35.8371 13.0302ZM32.698 9.70203L34.4755 8.59561L32.7168 5.77013L32.6688 5.78163L32.6342 6.12524L32.698 9.70203ZM44.4268 7.87688C43.3788 8.52917 42.3433 8.7136 41.3203 8.43015C40.2973 8.14671 39.3798 7.35278 38.5679 6.04837L37.3004 4.01217C36.4913 2.71218 36.184 1.53844 36.3786 0.490941C36.5732 -0.556555 37.19 -1.4037 38.2291 -2.05048C39.2594 -2.69176 40.2874 -2.86847 41.3132 -2.58061C42.3434 -2.29549 43.2631 -1.50294 44.0723 -0.202955L45.3397 1.83325C46.1517 3.13766 46.4589 4.3114 46.2616 5.35448C46.0686 6.3948 45.457 7.2356 44.4268 7.87688ZM43.3245 6.10598C43.665 5.89405 43.8295 5.57691 43.8182 5.15454C43.804 4.72776 43.5672 4.14515 43.1075 3.40672L41.6667 1.09195C41.2153 0.366785 40.7991 -0.0949702 40.418 -0.293317C40.0368 -0.491664 39.676 -0.484874 39.3356 -0.272948C38.9818 -0.0527658 38.812 0.270719 38.8261 0.697505C38.8375 1.11987 39.0702 1.69584 39.5244 2.42543L40.9652 4.7402C41.4276 5.48305 41.8457 5.95282 42.2197 6.14949C42.5936 6.34617 42.9619 6.33167 43.3245 6.10598ZM51.1717 3.48532L50.3253 2.12564L51.2014 1.28588L50.7142 0.50323L47.0199 2.80276L46.1944 1.8166L46.1821 -6.80751L48.4902 -8.2442L52.1315 -2.39426L53.0733 -2.98049L53.9775 -1.52795L53.0356 -0.941719L53.5228 -0.159073L54.6498 -0.566094L55.4961 0.793587L51.1717 3.48532ZM48.0326 0.15711L49.8101 -0.949308L48.0514 -3.77479L48.0033 -3.76329L47.9687 -3.41968L48.0326 0.15711Z"/>
<path d="M-1.89022 65.9608L-2.73655 64.6011L-1.8605 63.7613L-2.34766 62.9787L-6.04201 65.2782L-6.86749 64.2921L-6.87979 55.6679L-4.57164 54.2313L-0.930374 60.0812L0.0114536 59.495L0.915579 60.9475L-0.0262494 61.5337L0.460905 62.3164L1.5879 61.9094L2.43423 63.269L-1.89022 65.9608ZM-5.02932 62.6326L-3.25178 61.5262L-5.01049 58.7007L-5.05854 58.7122L-5.09313 59.0558L-5.02932 62.6326ZM6.69946 60.8074C5.65151 61.4597 4.61601 61.6441 3.59297 61.3607C2.56993 61.0773 1.65245 60.2833 0.840527 58.9789L-0.426899 56.9427C-1.23607 55.6427 -1.54335 54.469 -1.34875 53.4215C-1.15415 52.374 -0.537292 51.5268 0.501814 50.8801C1.53208 50.2388 2.5601 50.0621 3.5859 50.3499C4.61611 50.635 5.53581 51.4276 6.34498 52.7276L7.6124 54.7638C8.42433 56.0682 8.73161 57.2419 8.53425 58.285C8.34132 59.3253 7.72972 60.1661 6.69946 60.8074ZM5.59717 59.0365C5.93764 58.8246 6.10219 58.5075 6.09083 58.0851C6.0767 57.6583 5.83983 57.0757 5.3802 56.3373L3.93938 54.0225C3.488 53.2973 3.07175 52.8356 2.69063 52.6372C2.3095 52.4389 1.94871 52.4457 1.60823 52.6576C1.25449 52.8778 1.08469 53.2013 1.09881 53.628C1.11018 54.0504 1.34292 54.6264 1.79705 55.356L3.23787 57.6707C3.70025 58.4136 4.11842 58.8834 4.49237 59.08C4.86632 59.2767 5.23459 59.2622 5.59717 59.0365ZM13.4443 56.4159L12.598 55.0562L13.474 54.2164L12.9869 53.4338L9.29254 55.7333L8.46706 54.7471L8.45476 46.123L10.7629 44.6863L14.4042 50.5363L15.346 49.95L16.2501 51.4026L15.3083 51.9888L15.7955 52.7715L16.9225 52.3644L17.7688 53.7241L13.4443 56.4159ZM10.3052 53.0877L12.0828 51.9812L10.3241 49.1558L10.276 49.1673L10.2414 49.5109L10.3052 53.0877Z"/>
<path d="M32.0686 44.8232L31.2223 43.4635L32.0984 42.6238L31.6112 41.8411L27.9169 44.1406L27.0914 43.1545L27.0791 34.5304L29.3872 33.0937L33.0285 38.9436L33.9703 38.3574L34.8744 39.8099L33.9326 40.3962L34.4198 41.1788L35.5468 40.7718L36.3931 42.1315L32.0686 44.8232ZM28.9295 41.495L30.7071 40.3886L28.9484 37.5631L28.9003 37.5746L28.8657 37.9182L28.9295 41.495ZM40.6583 39.6699C39.6104 40.3221 38.5749 40.5066 37.5518 40.2231C36.5288 39.9397 35.6113 39.1458 34.7994 37.8413L33.532 35.8051C32.7228 34.5051 32.4155 33.3314 32.6101 32.2839C32.8047 31.2364 33.4216 30.3893 34.4607 29.7425C35.4909 29.1012 36.519 28.9245 37.5448 29.2124C38.575 29.4975 39.4947 30.29 40.3038 31.59L41.5713 33.6262C42.3832 34.9306 42.6905 36.1044 42.4931 37.1474C42.3002 38.1878 41.6886 39.0286 40.6583 39.6699ZM39.556 37.8989C39.8965 37.687 40.0611 37.3699 40.0497 36.9475C40.0356 36.5207 39.7987 35.9381 39.3391 35.1997L37.8982 32.8849C37.4469 32.1598 37.0306 31.698 36.6495 31.4997C36.2684 31.3013 35.9076 31.3081 35.5671 31.52C35.2134 31.7402 35.0435 32.0637 35.0577 32.4905C35.069 32.9128 35.3018 33.4888 35.7559 34.2184L37.1967 36.5332C37.6591 37.276 38.0773 37.7458 38.4512 37.9425C38.8252 38.1391 39.1935 38.1246 39.556 37.8989ZM47.4032 35.2783L46.5569 33.9186L47.4329 33.0788L46.9458 32.2962L43.2514 34.5957L42.4259 33.6096L42.4136 24.9855L44.7218 23.5488L48.363 29.3987L49.3049 28.8125L50.209 30.265L49.2672 30.8513L49.7543 31.6339L50.8813 31.2269L51.7276 32.5866L47.4032 35.2783ZM44.2641 31.9501L46.0416 30.8437L44.2829 28.0182L44.2349 28.0297L44.2003 28.3733L44.2641 31.9501Z"/>
<path d="M66.0275 23.6858L65.1812 22.3261L66.0572 21.4863L65.5701 20.7037L61.8757 23.0032L61.0502 22.017L61.0379 13.3929L63.3461 11.9562L66.9874 17.8062L67.9292 17.2199L68.8333 18.6725L67.8915 19.2587L68.3786 20.0414L69.5056 19.6343L70.352 20.994L66.0275 23.6858ZM62.8884 20.3575L64.6659 19.2511L62.9072 16.4256L62.8592 16.4371L62.8246 16.7808L62.8884 20.3575ZM74.6172 18.5324C73.5692 19.1847 72.5337 19.3691 71.5107 19.0857C70.4877 18.8022 69.5702 18.0083 68.7583 16.7039L67.4908 14.6677C66.6817 13.3677 66.3744 12.194 66.569 11.1465C66.7636 10.099 67.3804 9.25182 68.4195 8.60503C69.4498 7.96375 70.4778 7.78704 71.5036 8.07491C72.5338 8.36002 73.4535 9.15257 74.2627 10.4526L75.5301 12.4888C76.3421 13.7932 76.6493 14.9669 76.452 16.01C76.259 17.0503 75.6474 17.8911 74.6172 18.5324ZM73.5149 16.7615C73.8554 16.5496 74.0199 16.2324 74.0086 15.8101C73.9944 15.3833 73.7576 14.8007 73.2979 14.0622L71.8571 11.7475C71.4057 11.0223 70.9895 10.5605 70.6084 10.3622C70.2272 10.1639 69.8664 10.1706 69.526 10.3826C69.1722 10.6028 69.0024 10.9262 69.0165 11.353C69.0279 11.7754 69.2606 12.3514 69.7148 13.0809L71.1556 15.3957C71.618 16.1386 72.0361 16.6083 72.4101 16.805C72.784 17.0017 73.1523 16.9872 73.5149 16.7615ZM81.3621 14.1408L80.5157 12.7812L81.3918 11.9414L80.9046 11.1587L77.2103 13.4583L76.3848 12.4721L76.3725 3.84801L78.6806 2.41132L82.3219 8.26126L83.2637 7.67503L84.1679 9.12756L83.226 9.7138L83.7132 10.4964L84.8402 10.0894L85.6865 11.4491L81.3621 14.1408ZM78.223 10.8126L80.0005 9.70621L78.2418 6.88073L78.1937 6.89223L78.1591 7.23584L78.223 10.8126Z"/>
<path d="M-5.65868 97.7539L-6.50501 96.3942L-5.62897 95.5544L-6.11612 94.7718L-9.81047 97.0713L-10.636 96.0852L-10.6482 87.461L-8.34011 86.0243L-4.69884 91.8743L-3.75701 91.2881L-2.85288 92.7406L-3.79471 93.3268L-3.30756 94.1095L-2.18056 93.7025L-1.33423 95.0621L-5.65868 97.7539ZM-8.79778 94.4257L-7.02024 93.3192L-8.77895 90.4938L-8.82701 90.5053L-8.86159 90.8489L-8.79778 94.4257ZM2.931 92.6005C1.88305 93.2528 0.847552 93.4372 -0.175489 93.1538C-1.19853 92.8703 -2.11601 92.0764 -2.92794 90.772L-4.19536 88.7358C-5.00453 87.4358 -5.31182 86.2621 -5.11721 85.2146C-4.92261 84.1671 -4.30575 83.3199 -3.26665 82.6731C-2.23639 82.0319 -1.20836 81.8552 -0.182565 82.143C0.847649 82.4281 1.76734 83.2207 2.57651 84.5207L3.84394 86.5569C4.65586 87.8613 4.96315 89.035 4.76579 90.0781C4.57286 91.1184 3.96126 91.9592 2.931 92.6005ZM1.82871 90.8296C2.16918 90.6177 2.33373 90.3005 2.32236 89.8782C2.30824 89.4514 2.07137 88.8688 1.61173 88.1304L0.170914 85.8156C-0.28046 85.0904 -0.69671 84.6287 -1.07783 84.4303C-1.45896 84.232 -1.81976 84.2388 -2.16023 84.4507C-2.51397 84.6709 -2.68378 84.9944 -2.66966 85.4211C-2.65829 85.8435 -2.42554 86.4195 -1.97141 87.1491L-0.530593 89.4638C-0.0682093 90.2067 0.349958 90.6765 0.723908 90.8731C1.09786 91.0698 1.46613 91.0553 1.82871 90.8296ZM9.67587 88.209L8.82954 86.8493L9.70559 86.0095L9.21843 85.2269L5.52408 87.5264L4.6986 86.5402L4.6863 77.9161L6.99444 76.4794L10.6357 82.3294L11.5775 81.7431L12.4817 83.1957L11.5398 83.7819L12.027 84.5646L13.154 84.1575L14.0003 85.5172L9.67587 88.209ZM6.53677 84.8807L8.31431 83.7743L6.5556 80.9488L6.50755 80.9603L6.47296 81.304L6.53677 84.8807Z"/>
<path d="M28.3002 76.6163L27.4539 75.2566L28.3299 74.4169L27.8427 73.6342L24.1484 75.9337L23.3229 74.9476L23.3106 66.3235L25.6188 64.8868L29.26 70.7367L30.2019 70.1505L31.106 71.603L30.1641 72.1893L30.6513 72.9719L31.7783 72.5649L32.6246 73.9246L28.3002 76.6163ZM25.1611 73.2881L26.9386 72.1817L25.1799 69.3562L25.1319 69.3677L25.0973 69.7113L25.1611 73.2881ZM36.8899 71.4629C35.8419 72.1152 34.8064 72.2997 33.7834 72.0162C32.7603 71.7328 31.8429 70.9388 31.0309 69.6344L29.7635 67.5982C28.9543 66.2982 28.647 65.1245 28.8416 64.077C29.0363 63.0295 29.6531 62.1824 30.6922 61.5356C31.7225 60.8943 32.7505 60.7176 33.7763 61.0055C34.8065 61.2906 35.7262 62.0831 36.5354 63.3831L37.8028 65.4193C38.6147 66.7237 38.922 67.8975 38.7247 68.9405C38.5317 69.9809 37.9201 70.8217 36.8899 71.4629ZM35.7876 69.692C36.128 69.4801 36.2926 69.163 36.2812 68.7406C36.2671 68.3138 36.0302 67.7312 35.5706 66.9928L34.1298 64.678C33.6784 63.9528 33.2622 63.4911 32.881 63.2927C32.4999 63.0944 32.1391 63.1012 31.7986 63.3131C31.4449 63.5333 31.2751 63.8568 31.2892 64.2836C31.3006 64.7059 31.5333 65.2819 31.9874 66.0115L33.4283 68.3263C33.8907 69.0691 34.3088 69.5389 34.6828 69.7356C35.0567 69.9322 35.425 69.9177 35.7876 69.692ZM43.6347 67.0714L42.7884 65.7117L43.6644 64.8719L43.1773 64.0893L39.4829 66.3888L38.6575 65.4027L38.6452 56.7785L40.9533 55.3419L44.5946 61.1918L45.5364 60.6056L46.4405 62.0581L45.4987 62.6443L45.9859 63.427L47.1129 63.02L47.9592 64.3796L43.6347 67.0714ZM40.4956 63.7432L42.2732 62.6368L40.5145 59.8113L40.4664 59.8228L40.4318 60.1664L40.4956 63.7432Z"/>
<path d="M62.259 55.4787L61.4127 54.119L62.2888 53.2793L61.8016 52.4966L58.1073 54.7962L57.2818 53.81L57.2695 45.1859L59.5776 43.7492L63.2189 49.5991L64.1607 49.0129L65.0648 50.4654L64.123 51.0517L64.6102 51.8343L65.7372 51.4273L66.5835 52.787L62.259 55.4787ZM59.1199 52.1505L60.8975 51.0441L59.1388 48.2186L59.0907 48.2301L59.0561 48.5737L59.1199 52.1505ZM70.8487 50.3254C69.8008 50.9777 68.7653 51.1621 67.7422 50.8786C66.7192 50.5952 65.8017 49.8013 64.9898 48.4969L63.7224 46.4607C62.9132 45.1607 62.6059 43.9869 62.8005 42.9394C62.9951 41.8919 63.612 41.0448 64.6511 40.398C65.6813 39.7567 66.7094 39.58 67.7352 39.8679C68.7654 40.153 69.6851 40.9455 70.4942 42.2455L71.7617 44.2817C72.5736 45.5861 72.8809 46.7599 72.6835 47.803C72.4906 48.8433 71.879 49.6841 70.8487 50.3254ZM69.7464 48.5545C70.0869 48.3425 70.2515 48.0254 70.2401 47.603C70.226 47.1762 69.9891 46.5936 69.5295 45.8552L68.0886 43.5404C67.6373 42.8153 67.221 42.3535 66.8399 42.1552C66.4588 41.9568 66.098 41.9636 65.7575 42.1755C65.4038 42.3957 65.2339 42.7192 65.2481 43.146C65.2594 43.5684 65.4922 44.1443 65.9463 44.8739L67.3871 47.1887C67.8495 47.9315 68.2677 48.4013 68.6416 48.598C69.0156 48.7947 69.3838 48.7802 69.7464 48.5545ZM77.5936 45.9338L76.7473 44.5741L77.6233 43.7344L77.1362 42.9517L73.4418 45.2512L72.6163 44.2651L72.604 35.641L74.9122 34.2043L78.5534 40.0542L79.4953 39.468L80.3994 40.9205L79.4576 41.5068L79.9447 42.2894L81.0717 41.8824L81.918 43.2421L77.5936 45.9338ZM74.4545 42.6056L76.232 41.4992L74.4733 38.6737L74.4253 38.6852L74.3907 39.0288L74.4545 42.6056Z"/>
<path d="M96.2179 34.3413L95.3716 32.9816L96.2476 32.1418L95.7605 31.3592L92.0661 33.6587L91.2406 32.6726L91.2283 24.0484L93.5365 22.6118L97.1777 28.4617L98.1196 27.8755L99.0237 29.328L98.0819 29.9142L98.569 30.6969L99.696 30.2899L100.542 31.6495L96.2179 34.3413ZM93.0788 31.0131L94.8563 29.9066L93.0976 27.0812L93.0496 27.0927L93.015 27.4363L93.0788 31.0131ZM104.808 29.1879C103.76 29.8402 102.724 30.0246 101.701 29.7412C100.678 29.4577 99.7606 28.6638 98.9487 27.3594L97.6812 25.3232C96.8721 24.0232 96.5648 22.8495 96.7594 21.802C96.954 20.7545 97.5708 19.9073 98.6099 19.2606C99.6402 18.6193 100.668 18.4426 101.694 18.7304C102.724 19.0155 103.644 19.8081 104.453 21.1081L105.721 23.1443C106.532 24.4487 106.84 25.6224 106.642 26.6655C106.449 27.7058 105.838 28.5466 104.808 29.1879ZM103.705 27.417C104.046 27.2051 104.21 26.8879 104.199 26.4656C104.185 26.0388 103.948 25.4562 103.488 24.7178L102.048 22.403C101.596 21.6778 101.18 21.2161 100.799 21.0177C100.418 20.8194 100.057 20.8262 99.7164 21.0381C99.3626 21.2583 99.1928 21.5818 99.2069 22.0085C99.2183 22.4309 99.451 23.0069 99.9052 23.7365L101.346 26.0512C101.808 26.7941 102.227 27.2639 102.6 27.4605C102.974 27.6572 103.343 27.6427 103.705 27.417ZM111.552 24.7964L110.706 23.4367L111.582 22.5969L111.095 21.8143L107.401 24.1138L106.575 23.1276L106.563 14.5035L108.871 13.0668L112.512 18.9168L113.454 18.3305L114.358 19.7831L113.416 20.3693L113.904 21.152L115.031 20.7449L115.877 22.1046L111.552 24.7964ZM108.413 21.4681L110.191 20.3617L108.432 17.5362L108.384 17.5477L108.35 17.8914L108.413 21.4681Z"/>
<path d="M-9.42718 129.547L-10.2735 128.187L-9.39746 127.348L-9.88461 126.565L-13.579 128.864L-14.4044 127.878L-14.4167 119.254L-12.1086 117.817L-8.46733 123.667L-7.5255 123.081L-6.62138 124.534L-7.56321 125.12L-7.07605 125.903L-5.94905 125.496L-5.10273 126.855L-9.42718 129.547ZM-12.5663 126.219L-10.7887 125.112L-12.5474 122.287L-12.5955 122.298L-12.6301 122.642L-12.5663 126.219ZM-0.837498 124.394C-1.88545 125.046 -2.92094 125.23 -3.94398 124.947C-4.96702 124.663 -5.88451 123.87 -6.69643 122.565L-7.96386 120.529C-8.77303 119.229 -9.08031 118.055 -8.88571 117.008C-8.6911 115.96 -8.07425 115.113 -7.03514 114.466C-6.00488 113.825 -4.97685 113.648 -3.95106 113.936C-2.92084 114.221 -2.00115 115.014 -1.19198 116.314L0.0754462 118.35C0.88737 119.654 1.19465 120.828 0.997298 121.871C0.804363 122.912 0.192765 123.752 -0.837498 124.394ZM-1.93979 122.623C-1.59931 122.411 -1.43476 122.094 -1.44613 121.671C-1.46025 121.244 -1.69713 120.662 -2.15676 119.923L-3.59758 117.609C-4.04895 116.884 -4.4652 116.422 -4.84633 116.223C-5.22745 116.025 -5.58825 116.032 -5.92872 116.244C-6.28246 116.464 -6.45227 116.787 -6.43815 117.214C-6.42678 117.637 -6.19403 118.213 -5.73991 118.942L-4.29909 121.257C-3.8367 122 -3.41854 122.47 -3.04459 122.666C-2.67063 122.863 -2.30237 122.848 -1.93979 122.623ZM5.90737 120.002L5.06105 118.642L5.93709 117.803L5.44994 117.02L1.75558 119.319L0.930102 118.333L0.917807 109.709L3.22595 108.273L6.86722 114.122L7.80905 113.536L8.71317 114.989L7.77134 115.575L8.2585 116.358L9.3855 115.951L10.2318 117.31L5.90737 120.002ZM2.76828 116.674L4.54581 115.567L2.7871 112.742L2.73905 112.753L2.70447 113.097L2.76828 116.674Z"/>
<path d="M24.5317 108.409L23.6854 107.05L24.5614 106.21L24.0742 105.427L20.3799 107.727L19.5544 106.741L19.5421 98.1166L21.8503 96.6799L25.4915 102.53L26.4334 101.944L27.3375 103.396L26.3957 103.982L26.8828 104.765L28.0098 104.358L28.8561 105.718L24.5317 108.409ZM21.3926 105.081L23.1701 103.975L21.4114 101.149L21.3634 101.161L21.3288 101.504L21.3926 105.081ZM33.1214 103.256C32.0734 103.908 31.0379 104.093 30.0149 103.809C28.9918 103.526 28.0744 102.732 27.2624 101.428L25.995 99.3913C25.1858 98.0913 24.8786 96.9176 25.0732 95.8701C25.2678 94.8226 25.8846 93.9755 26.9237 93.3287C27.954 92.6874 28.982 92.5107 30.0078 92.7985C31.038 93.0837 31.9577 93.8762 32.7669 95.1762L34.0343 97.2124C34.8462 98.5168 35.1535 99.6906 34.9562 100.734C34.7632 101.774 34.1516 102.615 33.1214 103.256ZM32.0191 101.485C32.3595 101.273 32.5241 100.956 32.5127 100.534C32.4986 100.107 32.2617 99.5243 31.8021 98.7859L30.3613 96.4711C29.9099 95.7459 29.4937 95.2842 29.1125 95.0858C28.7314 94.8875 28.3706 94.8943 28.0301 95.1062C27.6764 95.3264 27.5066 95.6499 27.5207 96.0767C27.5321 96.499 27.7648 97.075 28.219 97.8046L29.6598 100.119C30.1222 100.862 30.5403 101.332 30.9143 101.529C31.2882 101.725 31.6565 101.711 32.0191 101.485ZM39.8662 98.8645L39.0199 97.5048L39.896 96.665L39.4088 95.8824L35.7144 98.1819L34.889 97.1958L34.8767 88.5716L37.1848 87.1349L40.8261 92.9849L41.7679 92.3987L42.672 93.8512L41.7302 94.4374L42.2174 95.2201L43.3444 94.8131L44.1907 96.1727L39.8662 98.8645ZM36.7271 95.5363L38.5047 94.4298L36.746 91.6044L36.6979 91.6159L36.6633 91.9595L36.7271 95.5363Z"/>
<path d="M58.4905 87.2718L57.6442 85.9121L58.5203 85.0724L58.0331 84.2897L54.3388 86.5893L53.5133 85.6031L53.501 76.979L55.8091 75.5423L59.4504 81.3922L60.3922 80.806L61.2963 82.2585L60.3545 82.8448L60.8417 83.6274L61.9687 83.2204L62.815 84.5801L58.4905 87.2718ZM55.3515 83.9436L57.129 82.8372L55.3703 80.0117L55.3222 80.0232L55.2876 80.3668L55.3515 83.9436ZM67.0802 82.1185C66.0323 82.7708 64.9968 82.9552 63.9737 82.6717C62.9507 82.3883 62.0332 81.5944 61.2213 80.2899L59.9539 78.2537C59.1447 76.9538 58.8374 75.78 59.032 74.7325C59.2266 73.685 59.8435 72.8379 60.8826 72.1911C61.9128 71.5498 62.9409 71.3731 63.9667 71.661C64.9969 71.9461 65.9166 72.7386 66.7257 74.0386L67.9932 76.0748C68.8051 77.3792 69.1124 78.553 68.915 79.5961C68.7221 80.6364 68.1105 81.4772 67.0802 82.1185ZM65.9779 80.3476C66.3184 80.1356 66.483 79.8185 66.4716 79.3961C66.4575 78.9693 66.2206 78.3867 65.761 77.6483L64.3201 75.3335C63.8688 74.6084 63.4525 74.1466 63.0714 73.9483C62.6903 73.7499 62.3295 73.7567 61.989 73.9686C61.6353 74.1888 61.4655 74.5123 61.4796 74.9391C61.4909 75.3614 61.7237 75.9374 62.1778 76.667L63.6186 78.9818C64.081 79.7246 64.4992 80.1944 64.8731 80.3911C65.2471 80.5877 65.6154 80.5732 65.9779 80.3476ZM73.8251 77.7269L72.9788 76.3672L73.8548 75.5275L73.3677 74.7448L69.6733 77.0443L68.8478 76.0582L68.8355 67.4341L71.1437 65.9974L74.7849 71.8473L75.7268 71.2611L76.6309 72.7136L75.6891 73.2999L76.1762 74.0825L77.3032 73.6755L78.1495 75.0352L73.8251 77.7269ZM70.686 74.3987L72.4635 73.2923L70.7048 70.4668L70.6568 70.4783L70.6222 70.8219L70.686 74.3987Z"/>
<path d="M92.4494 66.1344L91.6031 64.7747L92.4792 63.9349L91.992 63.1523L88.2977 65.4518L87.4722 64.4656L87.4599 55.8415L89.768 54.4048L93.4093 60.2548L94.3511 59.6686L95.2552 61.1211L94.3134 61.7073L94.8006 62.49L95.9276 62.0829L96.7739 63.4426L92.4494 66.1344ZM89.3103 62.8062L91.0879 61.6997L89.3292 58.8743L89.2811 58.8858L89.2465 59.2294L89.3103 62.8062ZM101.039 60.981C99.9912 61.6333 98.9557 61.8177 97.9326 61.5343C96.9096 61.2508 95.9921 60.4569 95.1802 59.1525L93.9128 57.1163C93.1036 55.8163 92.7963 54.6426 92.9909 53.5951C93.1855 52.5476 93.8024 51.7004 94.8415 51.0536C95.8717 50.4124 96.8998 50.2357 97.9256 50.5235C98.9558 50.8086 99.8755 51.6012 100.685 52.9012L101.952 54.9374C102.764 56.2418 103.071 57.4155 102.874 58.4586C102.681 59.4989 102.069 60.3397 101.039 60.981ZM99.9368 59.2101C100.277 58.9982 100.442 58.681 100.43 58.2587C100.416 57.8319 100.179 57.2493 99.7199 56.5108L98.279 54.1961C97.8277 53.4709 97.4114 53.0092 97.0303 52.8108C96.6492 52.6125 96.2884 52.6193 95.9479 52.8312C95.5942 53.0514 95.4243 53.3748 95.4385 53.8016C95.4498 54.224 95.6826 54.8 96.1367 55.5296L97.5775 57.8443C98.0399 58.5872 98.4581 59.0569 98.832 59.2536C99.206 59.4503 99.5742 59.4358 99.9368 59.2101ZM107.784 56.5894L106.938 55.2298L107.814 54.39L107.327 53.6074L103.632 55.9069L102.807 54.9207L102.794 46.2966L105.103 44.8599L108.744 50.7099L109.686 50.1236L110.59 51.5762L109.648 52.1624L110.135 52.9451L111.262 52.538L112.108 53.8977L107.784 56.5894ZM104.645 53.2612L106.422 52.1548L104.664 49.3293L104.616 49.3408L104.581 49.6844L104.645 53.2612Z"/>
<path d="M-13.1956 161.34L-14.042 159.98L-13.1659 159.14L-13.6531 158.358L-17.3474 160.657L-18.1729 159.671L-18.1852 151.047L-15.8771 149.61L-12.2358 155.46L-11.294 154.874L-10.3898 156.327L-11.3317 156.913L-10.8445 157.696L-9.71752 157.289L-8.87119 158.648L-13.1956 161.34ZM-16.3347 158.012L-14.5572 156.905L-16.3159 154.08L-16.364 154.091L-16.3985 154.435L-16.3347 158.012ZM-4.60596 156.187C-5.65391 156.839 -6.68941 157.023 -7.71245 156.74C-8.73549 156.456 -9.65297 155.662 -10.4649 154.358L-11.7323 152.322C-12.5415 151.022 -12.8488 149.848 -12.6542 148.801C-12.4596 147.753 -11.8427 146.906 -10.8036 146.259C-9.77334 145.618 -8.74532 145.441 -7.71952 145.729C-6.68931 146.014 -5.76961 146.807 -4.96044 148.107L-3.69302 150.143C-2.88109 151.447 -2.57381 152.621 -2.77117 153.664C-2.9641 154.704 -3.5757 155.545 -4.60596 156.187ZM-5.70825 154.416C-5.36778 154.204 -5.20322 153.887 -5.21459 153.464C-5.22872 153.037 -5.46559 152.455 -5.92522 151.716L-7.36604 149.402C-7.81742 148.676 -8.23367 148.215 -8.61479 148.016C-8.99592 147.818 -9.35671 147.825 -9.69719 148.037C-10.0509 148.257 -10.2207 148.58 -10.2066 149.007C-10.1952 149.43 -9.9625 150.006 -9.50837 150.735L-8.06755 153.05C-7.60517 153.793 -7.187 154.263 -6.81305 154.459C-6.4391 154.656 -6.07083 154.641 -5.70825 154.416ZM2.13891 151.795L1.29258 150.435L2.16863 149.596L1.68147 148.813L-2.01288 151.112L-2.83836 150.126L-2.85066 141.502L-0.542514 140.065L3.09876 145.915L4.04058 145.329L4.94471 146.782L4.00288 147.368L4.49004 148.151L5.61703 147.744L6.46336 149.103L2.13891 151.795ZM-1.00018 148.467L0.77735 147.36L-0.981359 144.535L-1.02941 144.546L-1.064 144.89L-1.00018 148.467Z"/>
<path d="M20.7632 140.202L19.9169 138.843L20.7929 138.003L20.3058 137.22L16.6114 139.52L15.786 138.534L15.7737 129.91L18.0818 128.473L21.7231 134.323L22.6649 133.737L23.569 135.189L22.6272 135.775L23.1143 136.558L24.2413 136.151L25.0877 137.511L20.7632 140.202ZM17.6241 136.874L19.4017 135.768L17.643 132.942L17.5949 132.954L17.5603 133.297L17.6241 136.874ZM29.3529 135.049C28.305 135.701 27.2695 135.886 26.2464 135.602C25.2234 135.319 24.3059 134.525 23.494 133.221L22.2265 131.184C21.4174 129.884 21.1101 128.711 21.3047 127.663C21.4993 126.616 22.1162 125.769 23.1553 125.122C24.1855 124.48 25.2135 124.304 26.2393 124.592C27.2696 124.877 28.1892 125.669 28.9984 126.969L30.2658 129.005C31.0778 130.31 31.3851 131.484 31.1877 132.527C30.9948 133.567 30.3832 134.408 29.3529 135.049ZM28.2506 133.278C28.5911 133.066 28.7556 132.749 28.7443 132.327C28.7301 131.9 28.4933 131.317 28.0336 130.579L26.5928 128.264C26.1414 127.539 25.7252 127.077 25.3441 126.879C24.9629 126.681 24.6021 126.687 24.2617 126.899C23.9079 127.119 23.7381 127.443 23.7522 127.87C23.7636 128.292 23.9964 128.868 24.4505 129.598L25.8913 131.912C26.3537 132.655 26.7719 133.125 27.1458 133.322C27.5198 133.518 27.888 133.504 28.2506 133.278ZM36.0978 130.658L35.2514 129.298L36.1275 128.458L35.6403 127.675L31.946 129.975L31.1205 128.989L31.1082 120.365L33.4163 118.928L37.0576 124.778L37.9994 124.192L38.9036 125.644L37.9617 126.231L38.4489 127.013L39.5759 126.606L40.4222 127.966L36.0978 130.658ZM32.9587 127.329L34.7362 126.223L32.9775 123.397L32.9295 123.409L32.8949 123.753L32.9587 127.329Z"/>
<path d="M54.7221 119.065L53.8758 117.705L54.7518 116.865L54.2646 116.083L50.5703 118.382L49.7448 117.396L49.7325 108.772L52.0407 107.335L55.6819 113.185L56.6238 112.599L57.5279 114.052L56.5861 114.638L57.0732 115.421L58.2002 115.013L59.0465 116.373L54.7221 119.065ZM51.583 115.737L53.3605 114.63L51.6018 111.805L51.5538 111.816L51.5192 112.16L51.583 115.737ZM63.3118 113.912C62.2638 114.564 61.2283 114.748 60.2053 114.465C59.1822 114.181 58.2648 113.387 57.4528 112.083L56.1854 110.047C55.3762 108.747 55.069 107.573 55.2636 106.526C55.4582 105.478 56.075 104.631 57.1141 103.984C58.1444 103.343 59.1724 103.166 60.1982 103.454C61.2284 103.739 62.1481 104.532 62.9573 105.832L64.2247 107.868C65.0366 109.172 65.3439 110.346 65.1466 111.389C64.9536 112.429 64.342 113.27 63.3118 113.912ZM62.2095 112.141C62.5499 111.929 62.7145 111.612 62.7031 111.189C62.689 110.762 62.4521 110.18 61.9925 109.441L60.5517 107.127C60.1003 106.401 59.6841 105.94 59.3029 105.741C58.9218 105.543 58.561 105.55 58.2205 105.762C57.8668 105.982 57.697 106.305 57.7111 106.732C57.7225 107.155 57.9552 107.731 58.4094 108.46L59.8502 110.775C60.3126 111.518 60.7307 111.987 61.1047 112.184C61.4786 112.381 61.8469 112.366 62.2095 112.141ZM70.0566 109.52L69.2103 108.16L70.0864 107.321L69.5992 106.538L65.9048 108.837L65.0794 107.851L65.0671 99.2272L67.3752 97.7905L71.0165 103.64L71.9583 103.054L72.8624 104.507L71.9206 105.093L72.4078 105.876L73.5348 105.469L74.3811 106.828L70.0566 109.52ZM66.9175 106.192L68.6951 105.085L66.9364 102.26L66.8883 102.271L66.8537 102.615L66.9175 106.192Z"/>
<path d="M88.6809 97.9273L87.8346 96.5677L88.7107 95.7279L88.2235 94.9452L84.5292 97.2448L83.7037 96.2586L83.6914 87.6345L85.9995 86.1978L89.6408 92.0478L90.5826 91.4615L91.4867 92.9141L90.5449 93.5003L91.0321 94.2829L92.1591 93.8759L93.0054 95.2356L88.6809 97.9273ZM85.5419 94.5991L87.3194 93.4927L85.5607 90.6672L85.5126 90.6787L85.478 91.0223L85.5419 94.5991ZM97.2706 92.774C96.2227 93.4263 95.1872 93.6107 94.1641 93.3272C93.1411 93.0438 92.2236 92.2499 91.4117 90.9455L90.1443 88.9093C89.3351 87.6093 89.0278 86.4355 89.2224 85.388C89.417 84.3405 90.0339 83.4934 91.073 82.8466C92.1032 82.2053 93.1313 82.0286 94.1571 82.3165C95.1873 82.6016 96.107 83.3942 96.9161 84.6941L98.1836 86.7303C98.9955 88.0348 99.3028 89.2085 99.1054 90.2516C98.9125 91.2919 98.3009 92.1327 97.2706 92.774ZM96.1683 91.0031C96.5088 90.7911 96.6734 90.474 96.662 90.0516C96.6479 89.6249 96.411 89.0422 95.9514 88.3038L94.5105 85.989C94.0592 85.2639 93.6429 84.8021 93.2618 84.6038C92.8807 84.4054 92.5199 84.4122 92.1794 84.6241C91.8257 84.8443 91.6559 85.1678 91.67 85.5946C91.6813 86.017 91.9141 86.5929 92.3682 87.3225L93.809 89.6373C94.2714 90.3801 94.6896 90.8499 95.0635 91.0466C95.4375 91.2433 95.8058 91.2288 96.1683 91.0031ZM104.015 88.3824L103.169 87.0227L104.045 86.183L103.558 85.4003L99.8637 87.6999L99.0382 86.7137L99.0259 78.0896L101.334 76.6529L104.975 82.5028L105.917 81.9166L106.821 83.3691L105.879 83.9554L106.367 84.738L107.494 84.331L108.34 85.6907L104.015 88.3824ZM100.876 85.0542L102.654 83.9478L100.895 81.1223L100.847 81.1338L100.813 81.4774L100.876 85.0542Z"/>
<path d="M-16.9641 193.133L-17.8105 191.773L-16.9344 190.934L-17.4216 190.151L-21.1159 192.45L-21.9414 191.464L-21.9537 182.84L-19.6456 181.403L-16.0043 187.253L-15.0625 186.667L-14.1583 188.12L-15.1002 188.706L-14.613 189.489L-13.486 189.082L-12.6397 190.441L-16.9641 193.133ZM-20.1032 189.805L-18.3257 188.698L-20.0844 185.873L-20.1325 185.884L-20.167 186.228L-20.1032 189.805ZM-8.37445 187.98C-9.4224 188.632 -10.4579 188.816 -11.4809 188.533C-12.504 188.249 -13.4215 187.456 -14.2334 186.151L-15.5008 184.115C-16.31 182.815 -16.6173 181.641 -16.4227 180.594C-16.2281 179.546 -15.6112 178.699 -14.5721 178.052C-13.5418 177.411 -12.5138 177.234 -11.488 177.522C-10.4578 177.807 -9.53811 178.6 -8.72894 179.9L-7.46151 181.936C-6.64959 183.24 -6.3423 184.414 -6.53966 185.457C-6.73259 186.498 -7.34419 187.338 -8.37445 187.98ZM-9.47674 186.209C-9.13627 185.997 -8.97172 185.68 -8.98309 185.257C-8.99721 184.831 -9.23409 184.248 -9.69372 183.51L-11.1345 181.195C-11.5859 180.47 -12.0022 180.008 -12.3833 179.809C-12.7644 179.611 -13.1252 179.618 -13.4657 179.83C-13.8194 180.05 -13.9892 180.374 -13.9751 180.8C-13.9637 181.223 -13.731 181.799 -13.2769 182.528L-11.836 184.843C-11.3737 185.586 -10.9555 186.056 -10.5815 186.252C-10.2076 186.449 -9.83933 186.434 -9.47674 186.209ZM-1.62958 183.588L-2.47591 182.228L-1.59987 181.389L-2.08702 180.606L-5.78137 182.906L-6.60686 181.919L-6.61915 173.295L-4.31101 171.859L-0.669737 177.709L0.272091 177.122L1.17622 178.575L0.234388 179.161L0.721542 179.944L1.84854 179.537L2.69487 180.896L-1.62958 183.588ZM-4.76868 180.26L-2.99114 179.153L-4.74985 176.328L-4.79791 176.339L-4.83249 176.683L-4.76868 180.26Z"/>
<path d="M16.9947 171.995L16.1484 170.636L17.0244 169.796L16.5373 169.013L12.8429 171.313L12.0175 170.327L12.0052 161.703L14.3133 160.266L17.9546 166.116L18.8964 165.53L19.8005 166.982L18.8587 167.568L19.3459 168.351L20.4729 167.944L21.3192 169.304L16.9947 171.995ZM13.8556 168.667L15.6332 167.561L13.8745 164.735L13.8264 164.747L13.7918 165.09L13.8556 168.667ZM25.5844 166.842C24.5365 167.494 23.501 167.679 22.4779 167.395C21.4549 167.112 20.5374 166.318 19.7255 165.014L18.458 162.977C17.6489 161.677 17.3416 160.504 17.5362 159.456C17.7308 158.409 18.3477 157.562 19.3868 156.915C20.417 156.273 21.4451 156.097 22.4708 156.385C23.5011 156.67 24.4208 157.462 25.2299 158.762L26.4974 160.798C27.3093 162.103 27.6166 163.277 27.4192 164.32C27.2263 165.36 26.6147 166.201 25.5844 166.842ZM24.4821 165.071C24.8226 164.859 24.9871 164.542 24.9758 164.12C24.9617 163.693 24.7248 163.11 24.2651 162.372L22.8243 160.057C22.373 159.332 21.9567 158.87 21.5756 158.672C21.1945 158.474 20.8337 158.48 20.4932 158.692C20.1394 158.912 19.9696 159.236 19.9838 159.663C19.9951 160.085 20.2279 160.661 20.682 161.391L22.1228 163.705C22.5852 164.448 23.0034 164.918 23.3773 165.115C23.7513 165.311 24.1195 165.297 24.4821 165.071ZM32.3293 162.451L31.483 161.091L32.359 160.251L31.8718 159.468L28.1775 161.768L27.352 160.782L27.3397 152.158L29.6479 150.721L33.2891 156.571L34.231 155.985L35.1351 157.437L34.1933 158.023L34.6804 158.806L35.8074 158.399L36.6537 159.759L32.3293 162.451ZM29.1902 159.122L30.9677 158.016L29.209 155.19L29.161 155.202L29.1264 155.546L29.1902 159.122Z"/>
<path d="M50.9536 150.858L50.1073 149.498L50.9833 148.659L50.4962 147.876L46.8018 150.175L45.9763 149.189L45.9641 140.565L48.2722 139.128L51.9135 144.978L52.8553 144.392L53.7594 145.845L52.8176 146.431L53.3047 147.214L54.4317 146.807L55.2781 148.166L50.9536 150.858ZM47.8145 147.53L49.5921 146.423L47.8334 143.598L47.7853 143.609L47.7507 143.953L47.8145 147.53ZM59.5433 145.705C58.4954 146.357 57.4599 146.541 56.4368 146.258C55.4138 145.974 54.4963 145.181 53.6844 143.876L52.4169 141.84C51.6078 140.54 51.3005 139.366 51.4951 138.319C51.6897 137.271 52.3065 136.424 53.3457 135.777C54.3759 135.136 55.4039 134.959 56.4297 135.247C57.46 135.532 58.3796 136.325 59.1888 137.625L60.4562 139.661C61.2682 140.965 61.5755 142.139 61.3781 143.182C61.1852 144.223 60.5736 145.063 59.5433 145.705ZM58.441 143.934C58.7815 143.722 58.946 143.405 58.9347 142.982C58.9205 142.556 58.6837 141.973 58.224 141.234L56.7832 138.92C56.3318 138.195 55.9156 137.733 55.5345 137.534C55.1533 137.336 54.7925 137.343 54.4521 137.555C54.0983 137.775 53.9285 138.098 53.9426 138.525C53.954 138.948 54.1868 139.524 54.6409 140.253L56.0817 142.568C56.5441 143.311 56.9623 143.781 57.3362 143.977C57.7102 144.174 58.0784 144.159 58.441 143.934ZM66.2882 141.313L65.4418 139.953L66.3179 139.114L65.8307 138.331L62.1364 140.631L61.3109 139.644L61.2986 131.02L63.6067 129.584L67.248 135.434L68.1898 134.847L69.094 136.3L68.1521 136.886L68.6393 137.669L69.7663 137.262L70.6126 138.621L66.2882 141.313ZM63.1491 137.985L64.9266 136.878L63.1679 134.053L63.1198 134.064L63.0853 134.408L63.1491 137.985Z"/>
<path d="M84.9125 129.72L84.0662 128.361L84.9422 127.521L84.455 126.738L80.7607 129.038L79.9352 128.052L79.9229 119.428L82.2311 117.991L85.8723 123.841L86.8142 123.255L87.7183 124.707L86.7765 125.293L87.2636 126.076L88.3906 125.669L89.2369 127.029L84.9125 129.72ZM81.7734 126.392L83.5509 125.286L81.7922 122.46L81.7442 122.472L81.7096 122.815L81.7734 126.392ZM93.5022 124.567C92.4542 125.219 91.4187 125.404 90.3957 125.12C89.3726 124.837 88.4552 124.043 87.6432 122.739L86.3758 120.702C85.5666 119.402 85.2594 118.229 85.454 117.181C85.6486 116.134 86.2654 115.286 87.3045 114.64C88.3348 113.998 89.3628 113.822 90.3886 114.11C91.4188 114.395 92.3385 115.187 93.1477 116.487L94.4151 118.523C95.227 119.828 95.5343 121.002 95.337 122.045C95.144 123.085 94.5324 123.926 93.5022 124.567ZM92.3999 122.796C92.7403 122.584 92.9049 122.267 92.8935 121.845C92.8794 121.418 92.6425 120.835 92.1829 120.097L90.7421 117.782C90.2907 117.057 89.8745 116.595 89.4933 116.397C89.1122 116.199 88.7514 116.205 88.4109 116.417C88.0572 116.637 87.8874 116.961 87.9015 117.388C87.9129 117.81 88.1456 118.386 88.5998 119.116L90.0406 121.43C90.503 122.173 90.9211 122.643 91.2951 122.84C91.669 123.036 92.0373 123.022 92.3999 122.796ZM100.247 120.176L99.4007 118.816L100.277 117.976L99.7896 117.193L96.0952 119.493L95.2698 118.507L95.2575 109.883L97.5656 108.446L101.207 114.296L102.149 113.71L103.053 115.162L102.111 115.748L102.598 116.531L103.725 116.124L104.571 117.484L100.247 120.176ZM97.1079 116.847L98.8855 115.741L97.1268 112.915L97.0787 112.927L97.0441 113.271L97.1079 116.847Z"/>
<path d="M13.2263 203.789L12.3799 202.429L13.256 201.589L12.7688 200.806L9.07448 203.106L8.24899 202.12L8.2367 193.496L10.5448 192.059L14.1861 197.909L15.1279 197.323L16.0321 198.775L15.0902 199.361L15.5774 200.144L16.7044 199.737L17.5507 201.097L13.2263 203.789ZM10.0872 200.46L11.8647 199.354L10.106 196.528L10.0579 196.54L10.0234 196.884L10.0872 200.46ZM21.8159 198.635C20.768 199.287 19.7325 199.472 18.7095 199.188C17.6864 198.905 16.7689 198.111 15.957 196.807L14.6896 194.77C13.8804 193.47 13.5731 192.297 13.7677 191.249C13.9623 190.202 14.5792 189.355 15.6183 188.708C16.6486 188.067 17.6766 187.89 18.7024 188.178C19.7326 188.463 20.6523 189.255 21.4615 190.555L22.7289 192.592C23.5408 193.896 23.8481 195.07 23.6507 196.113C23.4578 197.153 22.8462 197.994 21.8159 198.635ZM20.7137 196.864C21.0541 196.652 21.2187 196.335 21.2073 195.913C21.1932 195.486 20.9563 194.903 20.4967 194.165L19.0559 191.85C18.6045 191.125 18.1882 190.663 17.8071 190.465C17.426 190.267 17.0652 190.273 16.7247 190.485C16.371 190.706 16.2012 191.029 16.2153 191.456C16.2267 191.878 16.4594 192.454 16.9135 193.184L18.3544 195.499C18.8167 196.241 19.2349 196.711 19.6089 196.908C19.9828 197.104 20.3511 197.09 20.7137 196.864ZM28.5608 194.244L27.7145 192.884L28.5905 192.044L28.1034 191.262L24.409 193.561L23.5835 192.575L23.5712 183.951L25.8794 182.514L29.5207 188.364L30.4625 187.778L31.3666 189.23L30.4248 189.817L30.9119 190.599L32.0389 190.192L32.8853 191.552L28.5608 194.244ZM25.4217 190.915L27.1993 189.809L25.4405 186.984L25.3925 186.995L25.3579 187.339L25.4217 190.915Z"/>
<path d="M47.1851 182.651L46.3388 181.291L47.2148 180.452L46.7277 179.669L43.0333 181.968L42.2079 180.982L42.1956 172.358L44.5037 170.921L48.145 176.771L49.0868 176.185L49.9909 177.638L49.0491 178.224L49.5363 179.007L50.6633 178.6L51.5096 179.959L47.1851 182.651ZM44.046 179.323L45.8236 178.216L44.0649 175.391L44.0168 175.402L43.9822 175.746L44.046 179.323ZM55.7748 177.498C54.7269 178.15 53.6914 178.334 52.6683 178.051C51.6453 177.767 50.7278 176.974 49.9159 175.669L48.6484 173.633C47.8393 172.333 47.532 171.159 47.7266 170.112C47.9212 169.064 48.5381 168.217 49.5772 167.57C50.6074 166.929 51.6355 166.752 52.6612 167.04C53.6915 167.325 54.6112 168.118 55.4203 169.418L56.6878 171.454C57.4997 172.758 57.807 173.932 57.6096 174.975C57.4167 176.016 56.8051 176.856 55.7748 177.498ZM54.6725 175.727C55.013 175.515 55.1775 175.198 55.1662 174.775C55.1521 174.348 54.9152 173.766 54.4555 173.027L53.0147 170.713C52.5634 169.988 52.1471 169.526 51.766 169.327C51.3849 169.129 51.0241 169.136 50.6836 169.348C50.3298 169.568 50.16 169.891 50.1742 170.318C50.1855 170.741 50.4183 171.317 50.8724 172.046L52.3132 174.361C52.7756 175.104 53.1938 175.574 53.5677 175.77C53.9417 175.967 54.3099 175.952 54.6725 175.727ZM62.5197 173.106L61.6734 171.746L62.5494 170.907L62.0622 170.124L58.3679 172.423L57.5424 171.437L57.5301 162.813L59.8383 161.377L63.4795 167.226L64.4214 166.64L65.3255 168.093L64.3836 168.679L64.8708 169.462L65.9978 169.055L66.8441 170.414L62.5197 173.106ZM59.3806 169.778L61.1581 168.671L59.3994 165.846L59.3514 165.857L59.3168 166.201L59.3806 169.778Z"/>
<path d="M81.144 161.514L80.2977 160.154L81.1737 159.314L80.6866 158.531L76.9922 160.831L76.1667 159.845L76.1544 151.221L78.4626 149.784L82.1038 155.634L83.0457 155.048L83.9498 156.5L83.008 157.086L83.4951 157.869L84.6221 157.462L85.4684 158.822L81.144 161.514ZM78.0049 158.185L79.7824 157.079L78.0237 154.253L77.9757 154.265L77.9411 154.609L78.0049 158.185ZM89.7337 156.36C88.6857 157.012 87.6502 157.197 86.6272 156.913C85.6041 156.63 84.6867 155.836 83.8747 154.532L82.6073 152.495C81.7981 151.195 81.4909 150.022 81.6855 148.974C81.8801 147.927 82.4969 147.08 83.536 146.433C84.5663 145.792 85.5943 145.615 86.6201 145.903C87.6503 146.188 88.57 146.98 89.3792 148.28L90.6466 150.317C91.4585 151.621 91.7658 152.795 91.5685 153.838C91.3755 154.878 90.7639 155.719 89.7337 156.36ZM88.6314 154.589C88.9719 154.377 89.1364 154.06 89.125 153.638C89.1109 153.211 88.874 152.628 88.4144 151.89L86.9736 149.575C86.5222 148.85 86.106 148.388 85.7248 148.19C85.3437 147.992 84.9829 147.998 84.6424 148.21C84.2887 148.431 84.1189 148.754 84.133 149.181C84.1444 149.603 84.3771 150.179 84.8313 150.909L86.2721 153.223C86.7345 153.966 87.1526 154.436 87.5266 154.633C87.9005 154.829 88.2688 154.815 88.6314 154.589ZM96.4785 151.969L95.6322 150.609L96.5083 149.769L96.0211 148.987L92.3268 151.286L91.5013 150.3L91.489 141.676L93.7971 140.239L97.4384 146.089L98.3802 145.503L99.2843 146.955L98.3425 147.542L98.8297 148.324L99.9567 147.917L100.803 149.277L96.4785 151.969ZM93.3394 148.64L95.117 147.534L93.3583 144.708L93.3102 144.72L93.2756 145.064L93.3394 148.64Z"/>
<path d="M9.4578 235.582L8.61148 234.222L9.48752 233.382L9.00037 232.6L5.30601 234.899L4.48053 233.913L4.46824 225.289L6.77638 223.852L10.4176 229.702L11.3595 229.116L12.2636 230.568L11.3218 231.155L11.8089 231.937L12.9359 231.53L13.7823 232.89L9.4578 235.582ZM6.31871 232.253L8.09624 231.147L6.33753 228.322L6.28948 228.333L6.25489 228.677L6.31871 232.253ZM18.0475 230.428C16.9995 231.081 15.964 231.265 14.941 230.982C13.918 230.698 13.0005 229.904 12.1885 228.6L10.9211 226.564C10.112 225.264 9.80467 224.09 9.99927 223.042C10.1939 221.995 10.8107 221.148 11.8498 220.501C12.8801 219.86 13.9081 219.683 14.9339 219.971C15.9641 220.256 16.8838 221.048 17.693 222.348L18.9604 224.385C19.7723 225.689 20.0796 226.863 19.8823 227.906C19.6893 228.946 19.0777 229.787 18.0475 230.428ZM16.9452 228.657C17.2857 228.445 17.4502 228.128 17.4388 227.706C17.4247 227.279 17.1879 226.697 16.7282 225.958L15.2874 223.643C14.836 222.918 14.4198 222.456 14.0387 222.258C13.6575 222.06 13.2967 222.067 12.9563 222.278C12.6025 222.499 12.4327 222.822 12.4468 223.249C12.4582 223.671 12.6909 224.247 13.1451 224.977L14.5859 227.292C15.0483 228.034 15.4664 228.504 15.8404 228.701C16.2143 228.898 16.5826 228.883 16.9452 228.657ZM24.7924 226.037L23.946 224.677L24.8221 223.837L24.3349 223.055L20.6406 225.354L19.8151 224.368L19.8028 215.744L22.1109 214.307L25.7522 220.157L26.694 219.571L27.5982 221.023L26.6563 221.61L27.1435 222.392L28.2705 221.985L29.1168 223.345L24.7924 226.037ZM21.6533 222.709L23.4308 221.602L21.6721 218.777L21.624 218.788L21.5894 219.132L21.6533 222.709Z"/>
<path d="M43.4167 214.444L42.5703 213.084L43.4464 212.245L42.9592 211.462L39.2649 213.761L38.4394 212.775L38.4271 204.151L40.7352 202.715L44.3765 208.564L45.3183 207.978L46.2225 209.431L45.2806 210.017L45.7678 210.8L46.8948 210.393L47.7411 211.752L43.4167 214.444ZM40.2776 211.116L42.0551 210.009L40.2964 207.184L40.2483 207.195L40.2138 207.539L40.2776 211.116ZM52.0063 209.291C50.9584 209.943 49.9229 210.127 48.8999 209.844C47.8768 209.561 46.9593 208.767 46.1474 207.462L44.88 205.426C44.0708 204.126 43.7635 202.952 43.9581 201.905C44.1527 200.857 44.7696 200.01 45.8087 199.363C46.839 198.722 47.867 198.545 48.8928 198.833C49.923 199.118 50.8427 199.911 51.6519 201.211L52.9193 203.247C53.7312 204.551 54.0385 205.725 53.8411 206.768C53.6482 207.809 53.0366 208.649 52.0063 209.291ZM50.9041 207.52C51.2445 207.308 51.4091 206.991 51.3977 206.568C51.3836 206.142 51.1467 205.559 50.6871 204.821L49.2463 202.506C48.7949 201.781 48.3786 201.319 47.9975 201.121C47.6164 200.922 47.2556 200.929 46.9151 201.141C46.5614 201.361 46.3916 201.685 46.4057 202.111C46.4171 202.534 46.6498 203.11 47.1039 203.839L48.5448 206.154C49.0071 206.897 49.4253 207.367 49.7993 207.563C50.1732 207.76 50.5415 207.745 50.9041 207.52ZM58.7512 204.899L57.9049 203.539L58.7809 202.7L58.2938 201.917L54.5994 204.217L53.7739 203.23L53.7616 194.606L56.0698 193.17L59.7111 199.02L60.6529 198.433L61.557 199.886L60.6152 200.472L61.1023 201.255L62.2293 200.848L63.0757 202.207L58.7512 204.899ZM55.6121 201.571L57.3897 200.465L55.6309 197.639L55.5829 197.651L55.5483 197.994L55.6121 201.571Z"/>
<path d="M77.3755 193.306L76.5292 191.947L77.4052 191.107L76.9181 190.324L73.2237 192.624L72.3983 191.638L72.386 183.014L74.6941 181.577L78.3354 187.427L79.2772 186.841L80.1813 188.293L79.2395 188.879L79.7267 189.662L80.8537 189.255L81.7 190.615L77.3755 193.306ZM74.2364 189.978L76.014 188.872L74.2553 186.046L74.2072 186.058L74.1726 186.401L74.2364 189.978ZM85.9652 188.153C84.9173 188.805 83.8818 188.99 82.8587 188.706C81.8357 188.423 80.9182 187.629 80.1063 186.325L78.8388 184.288C78.0297 182.988 77.7224 181.815 77.917 180.767C78.1116 179.72 78.7285 178.873 79.7676 178.226C80.7978 177.584 81.8259 177.408 82.8516 177.696C83.8819 177.981 84.8016 178.773 85.6107 180.073L86.8782 182.109C87.6901 183.414 87.9974 184.588 87.8 185.631C87.6071 186.671 86.9955 187.512 85.9652 188.153ZM84.8629 186.382C85.2034 186.17 85.3679 185.853 85.3566 185.431C85.3425 185.004 85.1056 184.421 84.6459 183.683L83.2051 181.368C82.7537 180.643 82.3375 180.181 81.9564 179.983C81.5753 179.785 81.2145 179.791 80.874 180.003C80.5202 180.223 80.3504 180.547 80.3646 180.974C80.3759 181.396 80.6087 181.972 81.0628 182.702L82.5036 185.016C82.966 185.759 83.3842 186.229 83.7581 186.426C84.1321 186.622 84.5003 186.608 84.8629 186.382ZM92.7101 183.762L91.8638 182.402L92.7398 181.562L92.2526 180.779L88.5583 183.079L87.7328 182.093L87.7205 173.469L90.0287 172.032L93.6699 177.882L94.6118 177.296L95.5159 178.748L94.574 179.335L95.0612 180.117L96.1882 179.71L97.0345 181.07L92.7101 183.762ZM89.571 180.433L91.3485 179.327L89.5898 176.501L89.5418 176.513L89.5072 176.857L89.571 180.433Z"/>
<path d="M5.68931 267.375L4.84298 266.015L5.71903 265.175L5.23187 264.393L1.53752 266.692L0.712036 265.706L0.699742 257.082L3.00788 255.645L6.64915 261.495L7.59098 260.909L8.49511 262.361L7.55328 262.948L8.04043 263.73L9.16743 263.323L10.0138 264.683L5.68931 267.375ZM2.55021 264.047L4.32775 262.94L2.56904 260.115L2.52099 260.126L2.4864 260.47L2.55021 264.047ZM14.279 262.221C13.231 262.874 12.1955 263.058 11.1725 262.775C10.1495 262.491 9.23198 261.697 8.42006 260.393L7.15263 258.357C6.34346 257.057 6.03618 255.883 6.23078 254.835C6.42538 253.788 7.04224 252.941 8.08134 252.294C9.11161 251.653 10.1396 251.476 11.1654 251.764C12.1956 252.049 13.1153 252.842 13.9245 254.142L15.1919 256.178C16.0039 257.482 16.3111 258.656 16.1138 259.699C15.9208 260.739 15.3093 261.58 14.279 262.221ZM13.1767 260.45C13.5172 260.239 13.6817 259.921 13.6704 259.499C13.6562 259.072 13.4194 258.49 12.9597 257.751L11.5189 255.436C11.0675 254.711 10.6513 254.25 10.2702 254.051C9.88903 253.853 9.52823 253.86 9.18776 254.072C8.83402 254.292 8.66421 254.615 8.67834 255.042C8.6897 255.464 8.92245 256.04 9.37658 256.77L10.8174 259.085C11.2798 259.828 11.6979 260.297 12.0719 260.494C12.4459 260.691 12.8141 260.676 13.1767 260.45ZM21.0239 257.83L20.1775 256.47L21.0536 255.63L20.5664 254.848L16.8721 257.147L16.0466 256.161L16.0343 247.537L18.3424 246.1L21.9837 251.95L22.9255 251.364L23.8297 252.817L22.8878 253.403L23.375 254.185L24.502 253.778L25.3483 255.138L21.0239 257.83ZM17.8848 254.502L19.6623 253.395L17.9036 250.57L17.8555 250.581L17.821 250.925L17.8848 254.502Z"/>
<path d="M39.6482 246.237L38.8018 244.877L39.6779 244.038L39.1907 243.255L35.4964 245.555L34.6709 244.568L34.6586 235.944L36.9667 234.508L40.608 240.358L41.5498 239.771L42.454 241.224L41.5121 241.81L41.9993 242.593L43.1263 242.186L43.9726 243.545L39.6482 246.237ZM36.5091 242.909L38.2866 241.803L36.5279 238.977L36.4798 238.989L36.4453 239.332L36.5091 242.909ZM48.2379 241.084C47.1899 241.736 46.1544 241.921 45.1314 241.637C44.1083 241.354 43.1908 240.56 42.3789 239.255L41.1115 237.219C40.3023 235.919 39.995 234.745 40.1896 233.698C40.3842 232.65 41.0011 231.803 42.0402 231.156C43.0705 230.515 44.0985 230.338 45.1243 230.626C46.1545 230.911 47.0742 231.704 47.8834 233.004L49.1508 235.04C49.9627 236.345 50.27 237.518 50.0726 238.561C49.8797 239.602 49.2681 240.443 48.2379 241.084ZM47.1356 239.313C47.476 239.101 47.6406 238.784 47.6292 238.361C47.6151 237.935 47.3782 237.352 46.9186 236.614L45.4778 234.299C45.0264 233.574 44.6101 233.112 44.229 232.914C43.8479 232.715 43.4871 232.722 43.1466 232.934C42.7929 233.154 42.6231 233.478 42.6372 233.904C42.6486 234.327 42.8813 234.903 43.3354 235.632L44.7763 237.947C45.2386 238.69 45.6568 239.16 46.0308 239.356C46.4047 239.553 46.773 239.539 47.1356 239.313ZM54.9827 236.692L54.1364 235.333L55.0124 234.493L54.5253 233.71L50.8309 236.01L50.0054 235.024L49.9932 226.399L52.3013 224.963L55.9426 230.813L56.8844 230.226L57.7885 231.679L56.8467 232.265L57.3338 233.048L58.4608 232.641L59.3072 234L54.9827 236.692ZM51.8436 233.364L53.6212 232.258L51.8625 229.432L51.8144 229.444L51.7798 229.787L51.8436 233.364Z"/>
<path d="M73.6071 225.1L72.7607 223.74L73.6368 222.9L73.1496 222.117L69.4553 224.417L68.6298 223.431L68.6175 214.807L70.9256 213.37L74.5669 219.22L75.5087 218.634L76.4129 220.086L75.471 220.673L75.9582 221.455L77.0852 221.048L77.9315 222.408L73.6071 225.1ZM70.468 221.771L72.2455 220.665L70.4868 217.839L70.4387 217.851L70.4042 218.195L70.468 221.771ZM82.1967 219.946C81.1488 220.599 80.1133 220.783 79.0903 220.499C78.0672 220.216 77.1497 219.422 76.3378 218.118L75.0704 216.082C74.2612 214.782 73.9539 213.608 74.1485 212.56C74.3431 211.513 74.96 210.666 75.9991 210.019C77.0294 209.378 78.0574 209.201 79.0832 209.489C80.1134 209.774 81.0331 210.566 81.8423 211.866L83.1097 213.903C83.9216 215.207 84.2289 216.381 84.0315 217.424C83.8386 218.464 83.227 219.305 82.1967 219.946ZM81.0945 218.175C81.4349 217.963 81.5995 217.646 81.5881 217.224C81.574 216.797 81.3371 216.214 80.8775 215.476L79.4367 213.161C78.9853 212.436 78.569 211.974 78.1879 211.776C77.8068 211.578 77.446 211.584 77.1055 211.796C76.7518 212.017 76.582 212.34 76.5961 212.767C76.6075 213.189 76.8402 213.765 77.2943 214.495L78.7352 216.81C79.1975 217.552 79.6157 218.022 79.9897 218.219C80.3636 218.416 80.7319 218.401 81.0945 218.175ZM88.9416 215.555L88.0953 214.195L88.9713 213.355L88.4842 212.573L84.7898 214.872L83.9643 213.886L83.952 205.262L86.2602 203.825L89.9015 209.675L90.8433 209.089L91.7474 210.541L90.8056 211.128L91.2927 211.91L92.4197 211.503L93.2661 212.863L88.9416 215.555ZM85.8025 212.226L87.5801 211.12L85.8213 208.295L85.7733 208.306L85.7387 208.65L85.8025 212.226Z"/>
<path d="M35.8797 278.03L35.0334 276.671L35.9094 275.831L35.4223 275.048L31.7279 277.348L30.9024 276.362L30.8901 267.737L33.1983 266.301L36.8396 272.151L37.7814 271.564L38.6855 273.017L37.7437 273.603L38.2308 274.386L39.3578 273.979L40.2042 275.339L35.8797 278.03ZM32.7406 274.702L34.5181 273.596L32.7594 270.77L32.7114 270.782L32.6768 271.125L32.7406 274.702ZM44.4694 272.877C43.4214 273.529 42.3859 273.714 41.3629 273.43C40.3399 273.147 39.4224 272.353 38.6105 271.048L37.343 269.012C36.5339 267.712 36.2266 266.538 36.4212 265.491C36.6158 264.443 37.2326 263.596 38.2717 262.95C39.302 262.308 40.33 262.132 41.3558 262.419C42.386 262.705 43.3057 263.497 44.1149 264.797L45.3823 266.833C46.1943 268.138 46.5015 269.311 46.3042 270.354C46.1112 271.395 45.4996 272.236 44.4694 272.877ZM43.3671 271.106C43.7076 270.894 43.8721 270.577 43.8608 270.155C43.8466 269.728 43.6098 269.145 43.1501 268.407L41.7093 266.092C41.2579 265.367 40.8417 264.905 40.4606 264.707C40.0794 264.508 39.7186 264.515 39.3782 264.727C39.0244 264.947 38.8546 265.271 38.8687 265.698C38.8801 266.12 39.1129 266.696 39.567 267.425L41.0078 269.74C41.4702 270.483 41.8883 270.953 42.2623 271.149C42.6363 271.346 43.0045 271.332 43.3671 271.106ZM51.2143 268.485L50.3679 267.126L51.244 266.286L50.7568 265.503L47.0625 267.803L46.237 266.817L46.2247 258.192L48.5328 256.756L52.1741 262.606L53.1159 262.02L54.0201 263.472L53.0782 264.058L53.5654 264.841L54.6924 264.434L55.5387 265.794L51.2143 268.485ZM48.0752 265.157L49.8527 264.051L48.094 261.225L48.0459 261.237L48.0114 261.58L48.0752 265.157Z"/>
<path d="M69.8386 256.893L68.9922 255.533L69.8683 254.693L69.3811 253.911L65.6868 256.21L64.8613 255.224L64.849 246.6L67.1571 245.163L70.7984 251.013L71.7402 250.427L72.6444 251.879L71.7025 252.466L72.1897 253.248L73.3167 252.841L74.163 254.201L69.8386 256.893ZM66.6995 253.564L68.477 252.458L66.7183 249.633L66.6702 249.644L66.6357 249.988L66.6995 253.564ZM78.4282 251.739C77.3803 252.392 76.3448 252.576 75.3218 252.293C74.2987 252.009 73.3812 251.215 72.5693 249.911L71.3019 247.875C70.4927 246.575 70.1854 245.401 70.38 244.353C70.5746 243.306 71.1915 242.459 72.2306 241.812C73.2609 241.171 74.2889 240.994 75.3147 241.282C76.3449 241.567 77.2646 242.359 78.0738 243.659L79.3412 245.696C80.1531 247 80.4604 248.174 80.263 249.217C80.0701 250.257 79.4585 251.098 78.4282 251.739ZM77.326 249.968C77.6664 249.756 77.831 249.439 77.8196 249.017C77.8055 248.59 77.5686 248.008 77.109 247.269L75.6682 244.954C75.2168 244.229 74.8005 243.767 74.4194 243.569C74.0383 243.371 73.6775 243.378 73.337 243.589C72.9833 243.81 72.8135 244.133 72.8276 244.56C72.839 244.982 73.0717 245.558 73.5258 246.288L74.9667 248.603C75.429 249.345 75.8472 249.815 76.2212 250.012C76.5951 250.209 76.9634 250.194 77.326 249.968ZM85.1731 247.348L84.3268 245.988L85.2028 245.148L84.7157 244.366L81.0213 246.665L80.1958 245.679L80.1836 237.055L82.4917 235.618L86.133 241.468L87.0748 240.882L87.9789 242.334L87.0371 242.921L87.5242 243.703L88.6512 243.296L89.4976 244.656L85.1731 247.348ZM82.034 244.02L83.8116 242.913L82.0529 240.088L82.0048 240.099L81.9702 240.443L82.034 244.02Z"/>
<path d="M100.029 267.548L99.1826 266.189L100.059 265.349L99.5715 264.566L95.8772 266.866L95.0517 265.879L95.0394 257.255L97.3475 255.819L100.989 261.669L101.931 261.082L102.835 262.535L101.893 263.121L102.38 263.904L103.507 263.497L104.353 264.856L100.029 267.548ZM96.8899 264.22L98.6674 263.114L96.9087 260.288L96.8606 260.3L96.8261 260.643L96.8899 264.22ZM108.619 262.395C107.571 263.047 106.535 263.232 105.512 262.948C104.489 262.665 103.572 261.871 102.76 260.566L101.492 258.53C100.683 257.23 100.376 256.056 100.57 255.009C100.765 253.961 101.382 253.114 102.421 252.467C103.451 251.826 104.479 251.649 105.505 251.937C106.535 252.222 107.455 253.015 108.264 254.315L109.532 256.351C110.344 257.656 110.651 258.829 110.453 259.872C110.261 260.913 109.649 261.754 108.619 262.395ZM107.516 260.624C107.857 260.412 108.021 260.095 108.01 259.672C107.996 259.246 107.759 258.663 107.299 257.925L105.859 255.61C105.407 254.885 104.991 254.423 104.61 254.225C104.229 254.026 103.868 254.033 103.527 254.245C103.174 254.465 103.004 254.789 103.018 255.215C103.029 255.638 103.262 256.214 103.716 256.943L105.157 259.258C105.619 260.001 106.038 260.471 106.412 260.667C106.786 260.864 107.154 260.85 107.516 260.624ZM115.364 258.003L114.517 256.644L115.393 255.804L114.906 255.021L111.212 257.321L110.386 256.335L110.374 247.71L112.682 246.274L116.323 252.124L117.265 251.537L118.169 252.99L117.227 253.576L117.715 254.359L118.842 253.952L119.688 255.312L115.364 258.003ZM112.224 254.675L114.002 253.569L112.243 250.743L112.195 250.755L112.161 251.098L112.224 254.675Z"/>
</svg>
