<svg width="94" height="265.25" fill="rgba(127, 127, 127, 0.1)" xmlns="http://www.w3.org/2000/svg"><path d="M-11.333 12.943l-.846-1.36.876-.839-.487-.783-3.695 2.3-.825-.986-.012-8.624 2.308-1.437 3.641 5.85.942-.586.904 1.452-.942.586.487.783 1.127-.407.847 1.36-4.325 2.691zm-3.139-3.328l1.778-1.106-1.759-2.826-.048.012-.035.343.064 3.577zM-2.743 7.79c-1.048.652-2.083.837-3.107.553-1.023-.283-1.94-1.077-2.752-2.381l-1.267-2.037c-.81-1.3-1.117-2.473-.922-3.52.194-1.048.811-1.895 1.85-2.542 1.03-.642 2.059-.818 3.084-.53 1.03.285 1.95 1.077 2.76 2.377l1.267 2.036c.812 1.305 1.12 2.479.922 3.522-.193 1.04-.805 1.88-1.835 2.522zm-1.102-1.77c.34-.213.505-.53.493-.952-.014-.427-.25-1.01-.71-1.748l-1.441-2.315C-5.954.28-6.371-.182-6.752-.38c-.381-.198-.742-.192-1.082.02-.354.22-.524.544-.51.97.012.423.244 1 .699 1.729l1.44 2.314c.463.743.881 1.213 1.255 1.41.374.196.742.182 1.105-.044zm7.847-2.621l-.846-1.36.876-.84-.488-.783-3.694 2.3-.825-.986-.013-8.624L1.32-8.331l3.642 5.85.942-.586.904 1.452-.942.586.487.783L7.48-.653l.846 1.36-4.324 2.692zM.862.07L2.64-1.036.882-3.862l-.048.012-.035.344L.863.07zm1.016 34.098l-.846-1.36.876-.84-.487-.782-3.695 2.3-.825-.987-.012-8.624 2.308-1.437 3.641 5.85.942-.586.904 1.452-.942.587.487.782 1.127-.407.847 1.36-4.325 2.692zM-1.26 30.84l1.778-1.107-1.759-2.825-.048.011-.035.344.064 3.576zm11.729-1.826c-1.048.653-2.084.837-3.107.554-1.023-.284-1.94-1.078-2.752-2.382L3.342 25.15c-.81-1.3-1.117-2.474-.922-3.522.194-1.047.811-1.894 1.85-2.541 1.03-.641 2.059-.818 3.084-.53 1.03.285 1.95 1.078 2.76 2.378l1.267 2.036c.812 1.304 1.12 2.478.922 3.52-.193 1.041-.805 1.882-1.835 2.523zm-1.102-1.77c.34-.212.505-.53.493-.952-.014-.427-.25-1.01-.71-1.748L7.708 22.23c-.452-.725-.868-1.186-1.249-1.385-.381-.198-.742-.191-1.082.02-.354.22-.524.544-.51.971.012.422.244.998.699 1.728l1.44 2.315c.463.742.88 1.212 1.255 1.409.374.197.742.182 1.105-.044zm7.847-2.621l-.847-1.36.877-.84-.488-.782-3.694 2.3-.825-.987-.013-8.624 2.308-1.437 3.642 5.85.942-.586.904 1.453-.942.586.487.782 1.127-.407.846 1.36-4.324 2.692zm-3.14-3.328l1.778-1.107-1.759-2.825-.048.011-.034.344.064 3.577zm21.763-8.265l-.846-1.36.876-.84-.487-.782-3.695 2.3-.825-.987-.012-8.624 2.308-1.436 3.641 5.85.942-.587.904 1.453-.942.586.487.783 1.127-.407.847 1.36-4.325 2.691zm-3.139-3.328l1.777-1.106-1.758-2.826-.048.012-.035.343.064 3.577zm11.729-1.825c-1.048.652-2.084.837-3.107.553-1.023-.283-1.94-1.077-2.752-2.382L37.3 4.012c-.809-1.3-1.116-2.474-.921-3.521.194-1.048.811-1.895 1.85-2.541 1.03-.642 2.058-.818 3.084-.53 1.03.285 1.95 1.077 2.76 2.377l1.267 2.036c.812 1.305 1.119 2.478.922 3.521-.193 1.04-.805 1.882-1.835 2.523zm-1.102-1.771c.34-.212.505-.53.493-.951-.014-.427-.25-1.01-.71-1.748l-1.441-2.315c-.452-.725-.868-1.187-1.249-1.385-.381-.199-.742-.192-1.082.02-.354.22-.524.544-.51.97.011.423.244.999.698 1.728l1.441 2.315c.463.743.88 1.213 1.255 1.41.374.196.742.182 1.105-.044zm7.847-2.62l-.847-1.36.876-.84-.487-.783-3.694 2.3-.826-.986-.012-8.625 2.308-1.436 3.642 5.85.941-.586.904 1.452-.941.586.487.783 1.127-.407.846 1.36-4.324 2.691zm-3.14-3.33L49.81-.949l-1.759-2.826-.048.012-.034.343.064 3.577zM-1.89 65.96l-.847-1.359.877-.84-.488-.782-3.694 2.3-.825-.987-.013-8.624 2.308-1.437 3.642 5.85.941-.586.905 1.453-.942.586.487.782 1.127-.407.846 1.36-4.324 2.692zm-3.14-3.327l1.778-1.107-1.758-2.825-.049.011-.034.344.064 3.577zM6.7 60.807c-1.048.653-2.084.837-3.107.554-1.023-.284-1.94-1.078-2.752-2.382l-1.268-2.036c-.81-1.3-1.116-2.474-.922-3.521.195-1.048.812-1.895 1.85-2.542 1.031-.641 2.06-.818 3.085-.53 1.03.285 1.95 1.078 2.759 2.378l1.267 2.036c.812 1.304 1.12 2.478.922 3.521-.193 1.04-.804 1.881-1.835 2.522zm-1.103-1.77c.34-.212.505-.53.494-.952-.014-.427-.251-1.01-.71-1.748l-1.442-2.315c-.451-.725-.867-1.186-1.248-1.385-.381-.198-.742-.191-1.083.02-.354.22-.523.544-.51.971.012.422.245.998.699 1.728l1.44 2.315c.463.743.881 1.212 1.255 1.409.374.197.743.182 1.105-.044zm7.847-2.621l-.846-1.36.876-.84-.487-.782-3.694 2.3-.826-.987-.012-8.624 2.308-1.437 3.641 5.85.942-.586.904 1.453-.942.586.488.783 1.127-.408.846 1.36-4.325 2.692zm-3.139-3.328l1.778-1.107-1.759-2.825-.048.011-.035.344.064 3.577zm21.764-8.265l-.847-1.36.876-.84-.487-.782-3.694 2.3-.826-.986-.012-8.625 2.308-1.436 3.642 5.85.941-.587.904 1.453-.941.586.487.783 1.127-.407.846 1.36-4.324 2.691zm-3.14-3.328l1.778-1.106-1.759-2.826-.048.012-.034.343.064 3.577zm11.73-1.825c-1.049.652-2.084.837-3.107.553-1.023-.283-1.94-1.077-2.753-2.382l-1.267-2.036c-.81-1.3-1.116-2.474-.922-3.521.195-1.048.812-1.895 1.85-2.541 1.03-.642 2.059-.819 3.085-.53 1.03.284 1.95 1.077 2.759 2.377l1.267 2.036c.812 1.305 1.12 2.478.922 3.521-.193 1.04-.804 1.882-1.835 2.523zm-1.103-1.771c.34-.212.505-.53.494-.952-.014-.426-.251-1.009-.71-1.747l-1.442-2.315c-.451-.725-.867-1.187-1.248-1.385-.382-.199-.742-.192-1.083.02-.354.22-.523.544-.51.97.012.423.245.999.699 1.728l1.44 2.315c.463.743.881 1.213 1.255 1.41.374.196.742.182 1.105-.044zm7.847-2.62l-.846-1.36.876-.84-.487-.783-3.695 2.3-.825-.986-.012-8.625 2.308-1.436 3.641 5.85.942-.587.904 1.453-.942.586.487.783 1.127-.407.847 1.36-4.325 2.691zm-3.139-3.329l1.778-1.106-1.76-2.826-.047.012-.035.343.064 3.577zm21.764-8.264l-.847-1.36.876-.84-.487-.782-3.694 2.3-.826-.987-.012-8.624 2.308-1.437 3.641 5.85.942-.586.904 1.453-.942.586.488.782 1.127-.407.846 1.36-4.325 2.692zm-3.14-3.328l1.778-1.107-1.759-2.825-.048.011-.034.344.063 3.577zm11.73-1.826c-1.049.653-2.084.837-3.107.554-1.023-.284-1.94-1.078-2.753-2.382l-1.267-2.036c-.81-1.3-1.117-2.474-.922-3.521.195-1.048.811-1.895 1.85-2.542 1.03-.641 2.059-.818 3.085-.53 1.03.285 1.95 1.078 2.759 2.378l1.267 2.036c.812 1.304 1.12 2.478.922 3.521-.193 1.04-.805 1.881-1.835 2.522zm-1.103-1.77c.34-.212.505-.53.494-.952-.015-.427-.251-1.01-.711-1.748l-1.44-2.314c-.452-.726-.868-1.188-1.25-1.386-.38-.198-.742-.191-1.082.02-.354.22-.524.544-.51.971.012.422.245.998.699 1.728l1.44 2.315c.463.743.881 1.212 1.255 1.409.374.197.742.182 1.105-.043zm7.847-2.621l-.846-1.36.876-.84-.487-.782-3.695 2.3-.825-.987-.013-8.624 2.309-1.437 3.64 5.85.943-.586.904 1.453-.942.586.487.782 1.127-.407.846 1.36-4.324 2.692zm-3.139-3.328l1.778-1.107-1.76-2.825-.047.011-.035.344.064 3.577zM-5.659 97.754l-.846-1.36.876-.84-.487-.782-3.694 2.3-.826-.987-.012-8.624 2.308-1.437 3.641 5.85.942-.586.904 1.453-.942.586.487.782 1.127-.406.847 1.36-4.325 2.69zm-3.139-3.328l1.778-1.107-1.759-2.825-.048.011-.035.344.064 3.577zM2.931 92.6c-1.048.653-2.083.837-3.106.554-1.024-.284-1.941-1.078-2.753-2.382l-1.267-2.036c-.81-1.3-1.117-2.474-.922-3.521.194-1.048.811-1.895 1.85-2.542 1.03-.641 2.059-.818 3.084-.53 1.03.285 1.95 1.078 2.76 2.378l1.267 2.036c.812 1.304 1.12 2.478.922 3.521-.193 1.04-.805 1.881-1.835 2.522zm-1.102-1.77c.34-.212.505-.53.493-.952-.014-.427-.25-1.01-.71-1.748L.17 85.816c-.451-.726-.868-1.187-1.249-1.386-.381-.198-.742-.191-1.082.02-.354.22-.524.544-.51.971.012.422.244.998.699 1.728l1.44 2.315c.463.743.881 1.213 1.255 1.41.374.196.742.181 1.105-.044zm7.847-2.621l-.846-1.36.876-.84-.488-.782-3.694 2.3-.825-.987-.013-8.624 2.308-1.437 3.642 5.85.942-.586.904 1.453-.942.586.487.783 1.127-.407.846 1.36-4.324 2.691zm-3.14-3.328l1.778-1.107-1.758-2.825-.048.011-.035.344.064 3.577zM28.3 76.616l-.846-1.36.876-.84-.487-.782-3.695 2.3-.825-.986-.012-8.624 2.308-1.437 3.641 5.85.942-.587.904 1.453-.942.586.487.783 1.127-.407.847 1.36-4.325 2.691zm-3.139-3.328l1.778-1.106-1.76-2.826-.047.012-.035.343.064 3.577zm11.729-1.825c-1.048.652-2.084.837-3.107.553-1.023-.283-1.94-1.077-2.752-2.382l-1.267-2.036c-.81-1.3-1.117-2.474-.922-3.521.194-1.047.811-1.895 1.85-2.541 1.03-.642 2.059-.818 3.084-.53 1.03.285 1.95 1.077 2.76 2.377l1.267 2.036c.812 1.305 1.119 2.478.922 3.522-.193 1.04-.805 1.88-1.835 2.522zm-1.102-1.771c.34-.212.505-.529.493-.951-.014-.427-.25-1.01-.71-1.748l-1.441-2.315c-.452-.725-.868-1.187-1.249-1.385-.381-.199-.742-.192-1.082.02-.354.22-.524.544-.51.97.012.423.244.999.698 1.728l1.441 2.315c.463.743.88 1.213 1.255 1.41.374.196.742.182 1.105-.044zm7.847-2.62l-.847-1.36.876-.84-.487-.783-3.694 2.3-.825-.986-.013-8.625 2.308-1.436 3.642 5.85.941-.586.904 1.452-.941.586.487.783 1.127-.407.846 1.36-4.324 2.691zm-3.14-3.329l1.778-1.106-1.759-2.826-.048.012-.034.343.064 3.577zm21.764-8.264l-.846-1.36.876-.84-.487-.782-3.695 2.3-.825-.987-.012-8.624 2.308-1.437 3.64 5.85.943-.586.904 1.452-.942.587.487.782 1.127-.407.847 1.36-4.325 2.692zm-3.14-3.328l1.779-1.107-1.76-2.825-.047.011-.035.344.064 3.577zm11.73-1.826c-1.048.653-2.084.837-3.107.554-1.023-.284-1.94-1.078-2.752-2.382l-1.268-2.036c-.809-1.3-1.116-2.474-.922-3.522.195-1.047.812-1.894 1.851-2.541 1.03-.641 2.058-.818 3.084-.53 1.03.285 1.95 1.078 2.76 2.377l1.267 2.037c.812 1.304 1.119 2.478.921 3.521-.192 1.04-.804 1.881-1.834 2.522zm-1.103-1.77c.34-.212.505-.53.494-.952-.014-.427-.25-1.01-.71-1.748l-1.441-2.315c-.452-.725-.868-1.187-1.25-1.385-.38-.198-.741-.191-1.082.02-.353.22-.523.544-.509.971.011.422.244.998.698 1.728l1.441 2.315c.463.742.88 1.212 1.255 1.409.374.197.742.182 1.104-.044zm7.848-2.621l-.847-1.36.876-.84-.487-.782-3.694 2.3-.826-.987-.012-8.624 2.308-1.437 3.641 5.85.942-.586.904 1.452-.941.587.487.782 1.127-.407.846 1.36-4.324 2.692zm-3.14-3.328l1.778-1.107-1.759-2.825-.048.011-.034.344.063 3.577zm21.764-8.265l-.846-1.36.876-.84-.488-.782-3.694 2.3-.825-.986-.013-8.625 2.309-1.436 3.64 5.85.943-.587.904 1.453-.942.586.487.783 1.127-.407.846 1.36-4.324 2.691zm-3.14-3.328l1.778-1.106-1.758-2.826-.048.012-.035.343.064 3.577zm11.73-1.825c-1.048.652-2.084.837-3.107.553-1.023-.283-1.94-1.077-2.752-2.382l-1.268-2.036c-.809-1.3-1.116-2.474-.922-3.521.195-1.047.812-1.895 1.85-2.541 1.031-.642 2.059-.818 3.085-.53 1.03.284 1.95 1.077 2.759 2.377l1.268 2.036c.811 1.305 1.119 2.478.921 3.522-.193 1.04-.804 1.88-1.834 2.522zm-1.103-1.771c.341-.212.505-.53.494-.951-.014-.427-.251-1.01-.711-1.748l-1.44-2.315c-.452-.725-.868-1.187-1.249-1.385-.381-.199-.742-.192-1.083.02-.353.22-.523.544-.51.97.012.423.245.999.7 1.729l1.44 2.314c.462.743.881 1.213 1.254 1.41.374.196.743.182 1.105-.044zm7.847-2.62l-.846-1.36.876-.84-.487-.783-3.694 2.3-.826-.986-.012-8.624 2.308-1.437 3.641 5.85.942-.587.904 1.453-.942.586.488.783 1.127-.407.846 1.36-4.325 2.691zm-3.139-3.329l1.778-1.106-1.759-2.826-.048.012-.034.343.063 3.577zM-9.427 129.547l-.847-1.36.877-.839-.488-.783-3.694 2.299-.825-.986-.013-8.624 2.308-1.437 3.642 5.85.942-.586.904 1.453-.942.586.487.783 1.127-.407.846 1.359-4.324 2.692zm-3.14-3.328l1.778-1.107-1.758-2.825-.048.011-.035.344.064 3.577zm11.73-1.825c-1.048.652-2.084.836-3.107.553-1.023-.284-1.94-1.077-2.752-2.382l-1.268-2.036c-.809-1.3-1.116-2.474-.922-3.521.195-1.048.812-1.895 1.85-2.542 1.031-.641 2.06-.818 3.085-.53 1.03.285 1.95 1.078 2.759 2.378l1.267 2.036c.812 1.304 1.12 2.478.922 3.521-.193 1.041-.804 1.881-1.834 2.523zm-1.103-1.771c.34-.212.505-.529.494-.952-.014-.427-.251-1.009-.71-1.748l-1.442-2.314c-.45-.725-.867-1.187-1.248-1.386-.381-.198-.742-.191-1.083.021-.353.22-.523.543-.51.97.012.423.245.999.7 1.728l1.44 2.315c.462.743.88 1.213 1.254 1.409.374.197.743.182 1.105-.043zm7.847-2.621l-.846-1.36.876-.839-.487-.783-3.694 2.299-.826-.986-.012-8.624 2.308-1.436 3.641 5.849.942-.586.904 1.453-.942.586.487.783 1.128-.407.846 1.359-4.325 2.692zm-3.139-3.328l1.778-1.107-1.759-2.825-.048.011-.035.344.064 3.577zm21.764-8.265l-.847-1.359.876-.84-.487-.783-3.694 2.3-.826-.986-.012-8.624 2.308-1.437 3.641 5.85.942-.586.904 1.452-.941.586.487.783 1.127-.407.846 1.36-4.324 2.691zm-3.14-3.328l1.778-1.106-1.759-2.826-.048.012-.034.343.064 3.577zm11.73-1.825c-1.049.652-2.084.837-3.107.553-1.023-.283-1.94-1.077-2.753-2.381l-1.267-2.037c-.81-1.3-1.116-2.473-.922-3.52.195-1.048.812-1.895 1.85-2.542 1.031-.642 2.059-.818 3.085-.53 1.03.285 1.95 1.077 2.759 2.377l1.267 2.036c.812 1.305 1.12 2.479.922 3.522-.193 1.04-.804 1.881-1.835 2.522zm-1.103-1.771c.34-.212.505-.529.494-.951-.014-.427-.251-1.01-.71-1.748L30.36 96.47c-.451-.725-.867-1.187-1.248-1.385-.382-.198-.742-.192-1.083.02-.354.22-.523.544-.51.97.012.423.245.999.699 1.729l1.44 2.314c.463.743.881 1.213 1.255 1.41.374.196.742.182 1.105-.044zm7.847-2.62l-.846-1.36.876-.84-.487-.783-3.695 2.3-.825-.986-.012-8.624 2.308-1.437 3.641 5.85.942-.586.904 1.452-.942.586.487.783 1.127-.407.847 1.36-4.325 2.692zm-3.139-3.329l1.778-1.106-1.759-2.826-.048.012-.035.344.064 3.576zm21.763-8.264l-.846-1.36.876-.84-.487-.782-3.694 2.3-.826-.987-.012-8.624 2.308-1.437 3.641 5.85.942-.586.904 1.453-.941.586.487.782 1.127-.407.846 1.36-4.325 2.692zm-3.139-3.328l1.778-1.107-1.759-2.825-.048.011-.034.344.064 3.577zm11.73-1.826c-1.049.653-2.084.837-3.107.554-1.023-.284-1.94-1.078-2.753-2.382l-1.267-2.036c-.81-1.3-1.117-2.474-.922-3.522.195-1.047.812-1.894 1.85-2.54 1.03-.642 2.059-.819 3.085-.531 1.03.285 1.95 1.078 2.759 2.378l1.267 2.036c.812 1.304 1.12 2.478.922 3.521-.193 1.04-.805 1.881-1.835 2.522zm-1.103-1.77c.34-.212.505-.53.494-.952-.014-.427-.251-1.01-.711-1.748l-1.44-2.314c-.452-.726-.868-1.187-1.25-1.386-.38-.198-.741-.191-1.082.02-.354.22-.523.544-.51.971.012.422.245.998.699 1.728l1.44 2.315c.463.743.881 1.212 1.255 1.41.374.196.742.181 1.105-.044zm7.847-2.621l-.846-1.36.876-.84-.487-.782-3.695 2.3-.825-.987-.013-8.624 2.309-1.437 3.64 5.85.943-.586.904 1.453-.942.586.487.782 1.127-.406.847 1.36-4.325 2.69zm-3.139-3.328l1.777-1.107-1.758-2.825-.048.011-.035.344.064 3.577zm21.764-8.265l-.847-1.36.876-.84-.487-.782-3.694 2.3-.826-.986-.012-8.624 2.308-1.437 3.641 5.85.942-.586.904 1.452-.942.586.488.783 1.127-.407.846 1.36-4.325 2.691zm-3.14-3.328l1.778-1.106-1.759-2.826-.048.012-.035.343.064 3.577zm11.729-1.825c-1.048.652-2.083.837-3.106.553-1.023-.283-1.94-1.077-2.753-2.381l-1.267-2.037c-.81-1.3-1.117-2.473-.922-3.52.195-1.048.811-1.896 1.85-2.542 1.03-.642 2.059-.818 3.085-.53 1.03.285 1.95 1.077 2.759 2.377l1.267 2.036c.812 1.305 1.119 2.479.922 3.522-.193 1.04-.805 1.88-1.835 2.522zm-1.102-1.77c.34-.213.505-.53.493-.952-.014-.427-.251-1.01-.71-1.748l-1.441-2.315c-.451-.725-.868-1.187-1.249-1.385-.38-.199-.742-.192-1.082.02-.354.22-.524.544-.51.97.012.423.245.999.699 1.729l1.44 2.314c.463.743.881 1.213 1.255 1.41.374.196.742.182 1.105-.044zm7.847-2.622l-.846-1.36.876-.839-.487-.783-3.695 2.3-.825-.986-.013-8.624 2.309-1.437 3.641 5.85.942-.586.904 1.452-.942.586.487.783 1.127-.407.846 1.36-4.324 2.691zm-3.139-3.328l1.777-1.106-1.758-2.826-.048.012-.035.343.064 3.577zM-13.196 161.34l-.846-1.36.876-.84-.487-.782-3.694 2.299-.826-.986-.012-8.624 2.308-1.437 3.641 5.85.942-.586.904 1.453-.942.586.488.783 1.126-.407.847 1.359-4.325 2.692zm-3.139-3.328l1.778-1.107-1.759-2.825-.048.011-.034.344.063 3.577zm11.729-1.825c-1.048.652-2.083.836-3.106.553-1.023-.284-1.941-1.078-2.753-2.382l-1.267-2.036c-.81-1.3-1.117-2.474-.922-3.521.194-1.048.811-1.895 1.85-2.542 1.03-.641 2.059-.818 3.084-.53 1.03.285 1.95 1.078 2.76 2.378l1.267 2.036c.812 1.304 1.12 2.478.922 3.521-.193 1.04-.805 1.881-1.835 2.523zm-1.102-1.771c.34-.212.505-.529.493-.952-.014-.427-.25-1.009-.71-1.748l-1.441-2.314c-.451-.726-.868-1.187-1.249-1.386-.38-.198-.742-.191-1.082.021-.354.22-.524.543-.51.97.012.423.245.999.699 1.728l1.44 2.315c.463.743.881 1.213 1.255 1.409.374.197.742.182 1.105-.043zm7.847-2.621l-.846-1.36.876-.839-.488-.783-3.694 2.299-.825-.986-.013-8.624 2.308-1.437 3.642 5.85.942-.586.904 1.453-.942.586.487.783 1.127-.407.846 1.359-4.324 2.692zm-3.14-3.328l1.778-1.107-1.758-2.825-.048.011-.035.344.064 3.577zm21.764-8.265l-.846-1.359.876-.84-.487-.783-3.695 2.3-.825-.986-.012-8.624 2.308-1.437 3.641 5.85.942-.586.904 1.452-.942.586.487.783 1.127-.407.847 1.36-4.325 2.691zm-3.139-3.328l1.778-1.106-1.759-2.826-.048.012-.035.343.064 3.577zm11.729-1.825c-1.048.652-2.084.837-3.107.553-1.023-.283-1.94-1.077-2.752-2.381l-1.267-2.037c-.81-1.3-1.117-2.473-.922-3.521.194-1.047.811-1.894 1.85-2.541 1.03-.642 2.058-.818 3.084-.53 1.03.285 1.95 1.077 2.76 2.377l1.267 2.036c.812 1.305 1.12 2.479.922 3.522-.193 1.04-.805 1.881-1.835 2.522zm-1.102-1.771c.34-.212.505-.529.493-.951-.014-.427-.25-1.01-.71-1.748l-1.441-2.315c-.452-.725-.868-1.187-1.249-1.385-.381-.198-.742-.192-1.082.02-.354.22-.524.544-.51.971.012.422.244.998.699 1.728l1.44 2.314c.463.743.88 1.213 1.255 1.41.374.196.742.182 1.105-.044zm7.847-2.62l-.847-1.36.877-.84-.488-.783-3.694 2.3-.826-.986-.012-8.624 2.308-1.437 3.642 5.85.941-.586.905 1.452-.942.587.487.782 1.127-.407.846 1.36-4.324 2.692zm-3.14-3.329l1.778-1.106-1.758-2.826-.049.012-.034.344.064 3.576zm21.764-8.264l-.846-1.36.876-.84-.487-.782-3.695 2.299-.825-.986-.012-8.624 2.308-1.437 3.64 5.85.943-.586.904 1.453-.942.586.487.783 1.127-.408.846 1.36-4.324 2.692zm-3.139-3.328l1.778-1.107-1.76-2.825-.047.011-.035.344.064 3.577zm11.729-1.825c-1.048.652-2.084.836-3.107.553-1.023-.284-1.94-1.078-2.752-2.382l-1.268-2.036c-.809-1.3-1.116-2.474-.921-3.521.194-1.048.811-1.895 1.85-2.542 1.03-.641 2.058-.818 3.084-.53 1.03.285 1.95 1.078 2.76 2.378l1.267 2.036c.812 1.304 1.119 2.478.922 3.521-.193 1.04-.805 1.881-1.835 2.523zm-1.102-1.771c.34-.212.505-.529.493-.952-.014-.427-.25-1.009-.71-1.748l-1.441-2.314c-.452-.726-.868-1.187-1.25-1.386-.38-.198-.741-.191-1.081.021-.354.22-.524.543-.51.97.011.423.244.999.698 1.728l1.441 2.315c.463.743.88 1.212 1.255 1.409.374.197.742.182 1.105-.043zm7.847-2.621l-.847-1.36.876-.839-.487-.783-3.694 2.299-.826-.986-.012-8.624 2.308-1.437 3.641 5.85.942-.586.904 1.453-.941.586.487.783 1.127-.407.846 1.359-4.324 2.692zm-3.14-3.328l1.778-1.107-1.759-2.825-.048.011-.034.344.064 3.577zm21.763-8.265l-.845-1.36.876-.84-.487-.782-3.695 2.3-.825-.986-.013-8.624L86 86.198l3.642 5.85.942-.587.904 1.453-.942.586.487.783 1.127-.407.846 1.36-4.324 2.691zM85.543 94.6l1.777-1.106-1.758-2.826-.048.012-.035.343.064 3.577zm11.729-1.825c-1.048.652-2.084.837-3.107.553-1.023-.283-1.94-1.077-2.752-2.382l-1.268-2.036c-.809-1.3-1.116-2.474-.922-3.521.195-1.047.812-1.895 1.851-2.541 1.03-.642 2.058-.818 3.084-.53 1.03.285 1.95 1.077 2.76 2.377l1.267 2.036c.812 1.305 1.119 2.478.921 3.522-.193 1.04-.804 1.88-1.834 2.522zm-1.103-1.77c.34-.213.505-.53.494-.952-.014-.427-.251-1.01-.71-1.748l-1.442-2.315c-.45-.725-.867-1.187-1.248-1.385-.381-.199-.742-.192-1.083.02-.353.22-.523.544-.509.97.011.423.244.999.698 1.729l1.441 2.314c.462.743.88 1.213 1.255 1.41.374.196.742.182 1.104-.044zm7.847-2.622l-.846-1.36.876-.839-.487-.783-3.694 2.3-.826-.986-.012-8.624 2.308-1.437 3.641 5.85.942-.586.904 1.452-.942.586.488.783 1.127-.407.846 1.36-4.325 2.691zm-3.139-3.328l1.778-1.106-1.759-2.826-.048.012-.034.343.063 3.577zM-16.964 193.133l-.847-1.36.877-.839-.488-.783-3.694 2.299-.825-.986-.013-8.624 2.308-1.437 3.642 5.85.942-.586.904 1.453-.942.586.487.783 1.127-.407.846 1.359-4.324 2.692zm-3.14-3.328l1.778-1.107-1.758-2.825-.049.011-.034.344.064 3.577zm11.73-1.825c-1.048.652-2.084.836-3.107.553-1.023-.284-1.94-1.077-2.752-2.382l-1.268-2.036c-.809-1.3-1.116-2.474-.922-3.521.195-1.048.812-1.895 1.85-2.542 1.031-.641 2.06-.818 3.085-.53 1.03.285 1.95 1.078 2.76 2.378l1.266 2.036c.812 1.304 1.12 2.478.922 3.521-.193 1.041-.804 1.881-1.834 2.523zm-1.103-1.771c.34-.212.505-.529.494-.952-.014-.426-.251-1.009-.71-1.747l-1.441-2.315c-.452-.725-.868-1.187-1.25-1.386-.38-.198-.741-.191-1.082.021-.353.22-.523.544-.51.97.012.423.245.999.7 1.728l1.44 2.315c.462.743.88 1.213 1.255 1.409.373.197.742.182 1.104-.043zm7.847-2.621l-.846-1.36.876-.839-.487-.783-3.694 2.3-.826-.987-.012-8.624 2.308-1.436 3.641 5.85.942-.587.904 1.453-.942.586.488.783 1.127-.407.846 1.359-4.325 2.692zm-3.139-3.328l1.778-1.107-1.759-2.825-.048.011-.034.344.063 3.577zm21.764-8.265l-.847-1.359.876-.84-.487-.783-3.694 2.3-.825-.986-.013-8.624 2.308-1.437 3.642 5.85.941-.586.904 1.452-.941.586.487.783 1.127-.407.846 1.36-4.324 2.691zm-3.14-3.328l1.778-1.106-1.758-2.826-.049.012-.034.343.064 3.577zm11.73-1.825c-1.049.652-2.084.837-3.107.553-1.023-.283-1.94-1.077-2.753-2.381l-1.267-2.037c-.81-1.3-1.116-2.473-.922-3.521.195-1.047.812-1.894 1.85-2.541 1.031-.642 2.06-.818 3.085-.53 1.03.285 1.95 1.077 2.759 2.377l1.267 2.036c.812 1.305 1.12 2.479.922 3.522-.193 1.04-.804 1.881-1.835 2.522zm-1.103-1.771c.34-.212.505-.529.494-.951-.014-.427-.251-1.01-.71-1.748l-1.442-2.315c-.451-.725-.867-1.187-1.248-1.385-.381-.198-.742-.192-1.083.02-.354.22-.523.544-.51.971.012.422.245.998.699 1.728l1.44 2.314c.463.743.881 1.213 1.255 1.41.374.196.742.182 1.105-.044zm7.847-2.62l-.846-1.36.876-.84-.487-.783-3.695 2.3-.825-.986-.012-8.624 2.308-1.437 3.641 5.85.942-.586.904 1.452-.942.586.487.783 1.127-.407.847 1.36-4.325 2.692zm-3.139-3.329l1.778-1.106-1.759-2.826-.048.012-.035.344.064 3.576zm21.764-8.264l-.847-1.36.876-.839-.487-.783-3.694 2.299-.826-.986-.012-8.624 2.308-1.437 3.642 5.85.941-.586.904 1.453-.941.586.487.783 1.127-.407.846 1.359-4.324 2.692zm-3.14-3.328l1.778-1.107-1.759-2.825-.048.011-.034.344.064 3.577zm11.73-1.825c-1.049.652-2.084.836-3.107.553-1.023-.284-1.94-1.077-2.753-2.382l-1.267-2.036c-.81-1.3-1.117-2.474-.922-3.521.195-1.048.812-1.895 1.85-2.542 1.03-.641 2.059-.818 3.085-.53 1.03.285 1.95 1.078 2.759 2.378l1.267 2.036c.812 1.304 1.12 2.478.922 3.521-.193 1.041-.804 1.881-1.835 2.523zm-1.103-1.771c.34-.212.505-.529.494-.952-.015-.426-.251-1.009-.711-1.748l-1.44-2.314c-.452-.725-.868-1.187-1.25-1.386-.38-.198-.742-.191-1.082.021-.354.22-.523.543-.51.97.012.423.245.999.699 1.728l1.44 2.315c.463.743.881 1.213 1.255 1.409.374.197.742.182 1.105-.043zm7.847-2.621l-.846-1.36.876-.839-.487-.783-3.695 2.3-.825-.987-.012-8.624 2.308-1.436 3.641 5.85.942-.587.904 1.453-.942.586.487.783 1.127-.407.847 1.359-4.325 2.692zm-3.139-3.328l1.778-1.107-1.76-2.825-.047.011-.035.344.064 3.577zm21.763-8.265l-.846-1.359.876-.84-.487-.783-3.694 2.3-.826-.986-.012-8.624 2.308-1.437 3.641 5.85.942-.586.904 1.452-.942.586.488.783 1.127-.407.846 1.36-4.325 2.691zm-3.139-3.328l1.778-1.106-1.759-2.826-.048.012-.034.343.063 3.577zm11.73-1.825c-1.049.652-2.084.837-3.107.553-1.023-.283-1.94-1.077-2.753-2.381l-1.267-2.037c-.81-1.3-1.117-2.473-.922-3.521.195-1.047.811-1.895 1.85-2.541 1.03-.642 2.059-.818 3.085-.53 1.03.285 1.95 1.077 2.759 2.377l1.267 2.036c.812 1.305 1.12 2.479.922 3.522-.193 1.04-.805 1.881-1.835 2.522zm-1.103-1.771c.34-.212.505-.529.493-.951-.014-.427-.25-1.01-.71-1.748l-1.44-2.315c-.452-.725-.868-1.187-1.25-1.385-.38-.198-.742-.192-1.082.02-.354.22-.524.544-.51.971.012.422.245.998.699 1.728l1.44 2.314c.463.743.881 1.213 1.255 1.41.374.196.742.182 1.105-.044zm7.847-2.62l-.846-1.36.876-.84-.487-.783-3.695 2.3-.825-.986-.013-8.624 2.309-1.437 3.641 5.85.942-.586.904 1.452-.942.586.487.783 1.127-.407.846 1.36-4.324 2.692zm-3.14-3.329l1.778-1.106-1.758-2.826-.048.012-.035.344.064 3.576zm-83.881 86.942l-.846-1.36.876-.84-.487-.783-3.695 2.3-.825-.986-.012-8.624 2.308-1.437 3.641 5.85.942-.586.904 1.452-.942.586.487.783 1.127-.407.847 1.36-4.325 2.692zm-3.139-3.329l1.778-1.106-1.759-2.826-.048.012-.035.344.064 3.576zm11.729-1.825c-1.048.652-2.083.837-3.107.553-1.023-.283-1.94-1.077-2.752-2.381l-1.267-2.037c-.81-1.3-1.117-2.473-.922-3.521.194-1.047.811-1.894 1.85-2.541 1.03-.641 2.059-.818 3.084-.53 1.03.285 1.95 1.077 2.76 2.377l1.267 2.037c.812 1.304 1.12 2.478.922 3.521-.193 1.04-.805 1.881-1.835 2.522zm-1.102-1.771c.34-.212.505-.529.493-.951-.014-.427-.25-1.01-.71-1.748l-1.441-2.315c-.451-.725-.868-1.187-1.249-1.385-.381-.198-.742-.192-1.082.02-.354.221-.524.544-.51.971.012.422.244.998.698 1.728l1.441 2.315c.463.742.88 1.212 1.255 1.409.374.196.742.182 1.105-.044zm7.847-2.62l-.846-1.36.875-.84-.487-.782-3.694 2.299-.825-.986-.013-8.624 2.308-1.437 3.642 5.85.941-.586.905 1.452-.942.587.487.782 1.127-.407.846 1.36-4.324 2.692zm-3.14-3.329l1.778-1.106-1.759-2.825-.048.011-.034.344.064 3.576zm21.764-8.264l-.846-1.36.876-.839-.487-.783-3.695 2.299-.825-.986-.012-8.624 2.308-1.437 3.641 5.85.942-.586.904 1.453-.942.586.487.783 1.127-.407.847 1.359-4.325 2.692zm-3.139-3.328l1.778-1.107-1.76-2.825-.047.011-.035.344.064 3.577zm11.729-1.825c-1.048.652-2.084.836-3.107.553-1.023-.284-1.94-1.077-2.752-2.382l-1.268-2.036c-.809-1.3-1.116-2.474-.921-3.521.194-1.048.811-1.895 1.85-2.542 1.03-.641 2.059-.818 3.084-.53 1.03.285 1.95 1.078 2.76 2.378l1.267 2.036c.812 1.304 1.119 2.478.922 3.521-.193 1.041-.805 1.881-1.835 2.523zm-1.102-1.771c.34-.212.505-.529.493-.952-.014-.427-.25-1.009-.71-1.748l-1.441-2.314c-.452-.725-.868-1.187-1.249-1.386-.381-.198-.742-.191-1.082.021-.354.22-.524.543-.51.97.011.423.244.999.698 1.728l1.441 2.315c.463.743.88 1.213 1.255 1.409.374.197.742.182 1.105-.043zm7.847-2.621l-.847-1.36.876-.839-.487-.783-3.694 2.299-.826-.986-.012-8.624 2.308-1.436 3.642 5.849.941-.586.904 1.453-.941.586.487.783 1.127-.407.846 1.359-4.324 2.692zm-3.14-3.328l1.778-1.107-1.759-2.825-.048.011-.034.344.064 3.577zm21.764-8.264l-.846-1.36.876-.84-.487-.783-3.695 2.3-.825-.986-.013-8.624 2.309-1.437 3.64 5.85.943-.586.904 1.452-.942.586.487.783 1.127-.407.846 1.36-4.324 2.692zm-3.14-3.329l1.778-1.106-1.758-2.826-.048.012-.035.344.064 3.576zm11.73-1.825c-1.048.652-2.084.837-3.107.553-1.023-.283-1.94-1.077-2.752-2.381l-1.268-2.037c-.809-1.3-1.116-2.473-.921-3.521.194-1.047.81-1.894 1.85-2.541 1.03-.641 2.058-.818 3.084-.53 1.03.285 1.95 1.077 2.76 2.377l1.267 2.037c.811 1.304 1.119 2.478.921 3.521-.192 1.04-.804 1.881-1.834 2.522zm-1.103-1.771c.34-.212.505-.529.494-.951-.014-.427-.251-1.01-.71-1.748l-1.441-2.315c-.452-.725-.868-1.187-1.25-1.385-.38-.198-.741-.192-1.082.02-.353.221-.523.544-.509.971.011.422.244.998.698 1.728l1.441 2.314c.462.743.88 1.213 1.255 1.41.373.196.742.182 1.104-.044zm7.847-2.62l-.846-1.36.876-.84-.487-.782-3.694 2.299-.826-.986-.012-8.624 2.308-1.437 3.641 5.85.942-.586.904 1.452-.942.587.488.782 1.127-.407.846 1.36-4.325 2.692zm-3.139-3.329l1.778-1.106-1.759-2.826-.048.012-.034.344.063 3.576zM9.458 235.582l-.847-1.36.877-.84L9 232.6l-3.694 2.299-.825-.986-.013-8.624 2.308-1.437 3.642 5.85.942-.586.904 1.452-.942.587.487.782 1.127-.407.846 1.36-4.324 2.692zm-3.14-3.329l1.778-1.106-1.758-2.825-.049.011-.034.344.064 3.576zm11.73-1.825c-1.048.653-2.084.837-3.107.554-1.023-.284-1.94-1.078-2.753-2.382l-1.267-2.036c-.809-1.3-1.116-2.474-.922-3.522.195-1.047.812-1.894 1.85-2.541 1.031-.641 2.06-.818 3.085-.53 1.03.285 1.95 1.077 2.759 2.377l1.267 2.037c.812 1.304 1.12 2.478.922 3.521-.193 1.04-.804 1.881-1.835 2.522zm-1.103-1.771c.34-.212.505-.529.494-.951-.014-.427-.251-1.009-.71-1.748l-1.442-2.315c-.451-.725-.867-1.187-1.248-1.385-.381-.198-.742-.191-1.083.02-.354.221-.523.544-.51.971.012.422.245.998.7 1.728l1.44 2.315c.462.742.88 1.212 1.254 1.409.374.197.743.182 1.105-.044zm7.847-2.62l-.846-1.36.876-.84-.487-.782-3.694 2.299-.826-.986-.012-8.624 2.308-1.437 3.641 5.85.942-.586.904 1.452-.942.587.488.782 1.127-.407.846 1.36-4.325 2.692zm-3.139-3.328l1.778-1.107-1.759-2.825-.048.011-.035.344.064 3.577zm21.764-8.265l-.847-1.36.876-.839-.487-.783-3.694 2.299-.826-.986-.012-8.624 2.308-1.436 3.642 5.849.941-.586.904 1.453-.941.586.487.783 1.127-.407.846 1.359-4.324 2.692zm-3.14-3.328l1.778-1.107-1.759-2.825-.048.011-.034.344.064 3.577zm11.73-1.825c-1.049.652-2.084.836-3.107.553-1.023-.283-1.94-1.077-2.753-2.382l-1.267-2.036c-.81-1.3-1.117-2.474-.922-3.521.195-1.048.812-1.895 1.85-2.542 1.031-.641 2.059-.818 3.085-.53 1.03.285 1.95 1.078 2.759 2.378l1.267 2.036c.812 1.304 1.12 2.478.922 3.521-.193 1.041-.804 1.881-1.835 2.523zm-1.103-1.771c.34-.212.505-.529.494-.952-.014-.426-.251-1.009-.71-1.747l-1.442-2.315c-.451-.725-.867-1.187-1.248-1.385-.382-.199-.742-.192-1.083.02-.354.22-.523.544-.51.97.012.423.245.999.699 1.728l1.44 2.315c.463.743.881 1.213 1.255 1.409.374.197.742.182 1.105-.043zm7.847-2.621l-.846-1.36.876-.839-.487-.783-3.695 2.3-.825-.987-.012-8.624 2.308-1.436 3.641 5.85.942-.587.904 1.453-.942.586.487.783 1.127-.407.847 1.359-4.325 2.692zm-3.139-3.328l1.778-1.106-1.76-2.826-.047.012-.035.343.064 3.577zm21.764-8.265l-.847-1.359.876-.84-.487-.783-3.694 2.3-.826-.986-.012-8.624 2.308-1.437 3.641 5.85.942-.586.904 1.452-.941.586.487.783 1.127-.407.846 1.36-4.325 2.691zm-3.14-3.328l1.778-1.106-1.759-2.826-.048.012-.034.343.063 3.577zm11.73-1.825c-1.049.652-2.084.837-3.107.553-1.023-.283-1.94-1.077-2.753-2.381l-1.267-2.037c-.81-1.3-1.117-2.473-.922-3.521.195-1.047.811-1.894 1.85-2.541 1.03-.642 2.059-.818 3.085-.53 1.03.285 1.95 1.077 2.759 2.377l1.267 2.036c.812 1.305 1.12 2.479.922 3.522-.193 1.04-.804 1.881-1.835 2.522zm-1.103-1.771c.34-.212.505-.529.494-.951-.014-.427-.251-1.01-.711-1.748l-1.44-2.315c-.452-.725-.868-1.187-1.25-1.385-.38-.198-.742-.192-1.082.02-.354.22-.524.544-.51.971.012.422.245.998.699 1.728l1.44 2.314c.463.743.881 1.213 1.255 1.41.374.196.742.182 1.105-.044zm7.847-2.62l-.846-1.36.876-.84-.487-.783-3.695 2.3-.825-.986-.013-8.624 2.309-1.437 3.64 5.85.943-.586.904 1.452-.942.587.487.782 1.127-.407.846 1.36-4.324 2.692zm-3.139-3.329l1.778-1.106-1.76-2.826-.047.012-.035.344.064 3.576zM5.69 267.375l-.847-1.36.876-.84-.487-.782-3.694 2.299-.826-.986-.012-8.624 2.308-1.437 3.641 5.85.942-.586.904 1.452-.942.587.487.782 1.127-.407.847 1.36-4.325 2.692zm-3.14-3.328l1.778-1.107-1.759-2.825-.048.011-.035.344.064 3.577zm11.729-1.826c-1.048.653-2.084.837-3.107.554-1.023-.284-1.94-1.078-2.752-2.382l-1.267-2.036c-.81-1.3-1.117-2.474-.922-3.522.194-1.047.811-1.894 1.85-2.541 1.03-.641 2.059-.818 3.084-.53 1.03.285 1.95 1.078 2.76 2.378l1.267 2.036c.812 1.304 1.12 2.478.922 3.521-.193 1.04-.805 1.881-1.835 2.522zm-1.102-1.771c.34-.211.505-.529.493-.951-.014-.427-.25-1.009-.71-1.748l-1.441-2.315c-.451-.725-.868-1.186-1.249-1.385-.381-.198-.742-.191-1.082.021-.354.22-.524.543-.51.97.012.422.244.998.699 1.728l1.44 2.315c.463.743.88 1.212 1.255 1.409.374.197.742.182 1.105-.044zm7.847-2.62l-.847-1.36.877-.84-.488-.782-3.694 2.299-.825-.986-.013-8.624 2.308-1.437 3.642 5.85.941-.586.905 1.453-.942.586.487.782 1.127-.407.846 1.36-4.324 2.692zm-3.14-3.328l1.778-1.107-1.758-2.825-.049.011-.034.344.064 3.577zm21.764-8.265l-.846-1.36.876-.839-.487-.783-3.695 2.3-.825-.987-.012-8.624 2.308-1.436 3.641 5.85.942-.587.904 1.453-.942.586.487.783 1.127-.407.847 1.359-4.325 2.692zm-3.139-3.328l1.778-1.106-1.76-2.826-.047.012-.035.343.064 3.577zm11.729-1.825c-1.048.652-2.084.837-3.107.553-1.023-.283-1.94-1.077-2.752-2.382l-1.267-2.036c-.81-1.3-1.117-2.474-.922-3.521.194-1.048.811-1.895 1.85-2.542 1.03-.641 2.059-.818 3.084-.53 1.03.285 1.95 1.078 2.76 2.378l1.267 2.036c.812 1.305 1.119 2.478.922 3.521-.193 1.041-.805 1.882-1.835 2.523zm-1.102-1.771c.34-.212.505-.529.493-.952-.014-.426-.25-1.009-.71-1.747l-1.441-2.315c-.452-.725-.868-1.187-1.249-1.385-.381-.199-.742-.192-1.082.02-.354.22-.524.544-.51.97.012.423.244.999.698 1.728l1.441 2.315c.463.743.88 1.213 1.255 1.409.374.197.742.183 1.105-.043zm7.847-2.621l-.847-1.359.876-.84-.487-.783-3.694 2.3-.826-.986-.012-8.625 2.308-1.436 3.642 5.85.941-.587.904 1.453-.941.586.487.783 1.127-.407.846 1.359-4.324 2.692zm-3.14-3.328l1.778-1.106-1.759-2.826-.048.012-.034.343.064 3.577zm21.764-8.264l-.846-1.36.876-.84-.487-.783-3.695 2.3-.825-.986-.012-8.624 2.308-1.437 3.64 5.85.943-.586.904 1.452-.942.587.487.782 1.127-.407.847 1.36-4.325 2.692zm-3.139-3.329l1.778-1.106-1.76-2.826-.047.012-.035.344.064 3.576zm11.729-1.825c-1.048.653-2.084.837-3.107.553-1.023-.283-1.94-1.077-2.752-2.381l-1.268-2.036c-.809-1.3-1.116-2.474-.921-3.522.194-1.047.811-1.894 1.85-2.541 1.03-.641 2.058-.818 3.084-.53 1.03.285 1.95 1.077 2.76 2.377l1.267 2.037c.812 1.304 1.119 2.478.921 3.521-.192 1.04-.804 1.881-1.834 2.522zm-1.103-1.771c.34-.212.506-.529.494-.951-.014-.427-.25-1.01-.71-1.748l-1.441-2.315c-.452-.725-.868-1.187-1.25-1.385-.38-.198-.741-.192-1.081.02-.354.221-.524.544-.51.971.011.422.244.998.698 1.728l1.441 2.315c.463.742.88 1.212 1.255 1.409.374.197.742.182 1.105-.044zm7.848-2.62l-.847-1.36.876-.84-.487-.782-3.694 2.299-.826-.986-.012-8.624 2.308-1.437 3.641 5.85.942-.586.904 1.452-.941.587.487.782 1.127-.407.846 1.36-4.324 2.692zm-3.14-3.329l1.778-1.106-1.759-2.825-.048.011-.034.344.063 3.576zM35.88 278.03l-.847-1.359.876-.84-.487-.783-3.694 2.3-.826-.986-.012-8.625 2.308-1.436 3.642 5.85.941-.587.904 1.453-.941.586.487.783 1.127-.407.846 1.36-4.324 2.691zm-3.14-3.328l1.778-1.106-1.759-2.826-.048.012-.034.343.064 3.577zm11.73-1.825c-1.049.652-2.084.837-3.107.553-1.023-.283-1.94-1.077-2.752-2.382l-1.268-2.036c-.81-1.3-1.116-2.474-.922-3.521.195-1.048.812-1.895 1.85-2.541 1.031-.642 2.059-.818 3.085-.531 1.03.286 1.95 1.078 2.759 2.378l1.267 2.036c.812 1.305 1.12 2.478.922 3.521-.193 1.041-.804 1.882-1.835 2.523zm-1.103-1.771c.34-.212.505-.529.494-.951-.014-.427-.251-1.01-.71-1.748l-1.442-2.315c-.451-.725-.867-1.187-1.248-1.385-.382-.199-.742-.192-1.083.02-.354.22-.523.544-.51.971.012.422.245.998.699 1.727l1.44 2.315c.463.743.881 1.213 1.255 1.409.374.197.742.183 1.105-.043zm7.847-2.621l-.846-1.359.876-.84-.487-.783-3.694 2.3-.826-.986-.012-8.625 2.308-1.436 3.641 5.85.942-.586.904 1.452-.942.586.487.783 1.127-.407.847 1.36-4.325 2.691zm-3.139-3.328l1.778-1.106-1.759-2.826-.048.012-.035.343.064 3.577zm21.764-8.264l-.847-1.36.876-.84-.487-.782-3.694 2.299-.826-.986-.012-8.624 2.308-1.437 3.641 5.85.942-.586.904 1.452-.942.587.488.782 1.127-.407.846 1.36-4.324 2.692zm-3.14-3.329l1.778-1.106-1.759-2.825-.048.011-.034.344.064 3.576zm11.73-1.825c-1.049.653-2.084.837-3.107.554-1.023-.284-1.94-1.078-2.753-2.382l-1.267-2.036c-.81-1.3-1.117-2.474-.922-3.522.195-1.047.812-1.894 1.85-2.541 1.03-.641 2.059-.818 3.085-.53 1.03.285 1.95 1.077 2.759 2.377l1.267 2.037c.812 1.304 1.12 2.478.922 3.521-.193 1.04-.805 1.881-1.835 2.522zm-1.103-1.771c.34-.212.505-.529.494-.951-.014-.427-.251-1.009-.711-1.748l-1.44-2.315c-.452-.725-.868-1.187-1.25-1.385-.38-.198-.742-.191-1.082.02-.354.221-.523.544-.51.971.012.422.245.998.699 1.728l1.44 2.315c.463.742.881 1.212 1.255 1.409.374.197.742.182 1.105-.044zm7.847-2.62l-.846-1.36.876-.84-.487-.782-3.695 2.299-.825-.986-.012-8.624 2.308-1.437 3.641 5.85.942-.586.904 1.452-.942.587.487.782 1.127-.407.847 1.36-4.325 2.692zm-3.139-3.328l1.778-1.107-1.76-2.825-.047.011-.035.344.064 3.577zm17.995 23.528l-.846-1.359.876-.84-.487-.783-3.695 2.3-.825-.987-.013-8.624 2.308-1.436 3.642 5.85.942-.587.904 1.453-.942.586.487.783 1.127-.407.846 1.359-4.324 2.692zm-3.14-3.328l1.778-1.106-1.758-2.826-.048.012-.035.343.064 3.577zm11.73-1.825c-1.048.652-2.084.837-3.107.553-1.023-.283-1.94-1.077-2.752-2.382l-1.268-2.036c-.809-1.3-1.116-2.474-.922-3.521.195-1.048.812-1.895 1.851-2.542 1.03-.641 2.058-.818 3.084-.53 1.03.285 1.95 1.078 2.759 2.378l1.268 2.036c.812 1.305 1.119 2.478.921 3.521-.192 1.041-.804 1.882-1.834 2.523zm-1.103-1.771c.341-.212.505-.529.494-.952-.014-.426-.251-1.009-.711-1.747l-1.44-2.315c-.452-.725-.868-1.187-1.249-1.385-.381-.199-.742-.192-1.083.02-.353.22-.523.544-.509.97.011.423.244.999.698 1.728l1.441 2.315c.462.743.881 1.213 1.255 1.409.374.197.742.183 1.104-.043zm7.848-2.621l-.847-1.359.876-.84-.487-.783-3.694 2.3-.826-.986-.012-8.625 2.308-1.436 3.641 5.85.942-.587.904 1.453-.942.586.488.783 1.127-.407.846 1.36-4.324 2.691zm-3.14-3.328l1.778-1.106-1.759-2.826-.048.012-.034.343.063 3.577z"/></svg>
