<svg xmlns="http://www.w3.org/2000/svg" width="1024" height="1024" viewBox="0 0 1024 1024"><path d="M513.43 26.233c-276.486 0-500.622 221.497-500.622 494.73 0 245.8 181.377 449.705 419.086 488.18l1.988-170.615c-.36-114.206-87.025-142.83-135.832-223.18-47.932-78.862 19.106-234.354 28.97-261.17 9.813-26.665 35.278-11.86 37.693-.404 2.312 11.56 25.694 98.316 35.044 128.32 9.35 29.795 17.945 79.468 118.64 62.207 96.74-16.692 86.51-87.53 78.187-120.513-8.273-33.137-23.788-109.27-27.792-126.74-3.956-17.618 3.837-36.115 33.018-14.54 29.233 21.528 131.37 115.455 153.206 186.814 24.403 79.68 10.215 156.934-92.69 221.817-48.033 30.263-71.46 93.242-71.41 133.88l.074 184.752c239.65-36.84 423.06-241.643 423.06-488.805 0-273.232-224.135-494.73-500.62-494.73z" fill="#fff"/></svg>