<svg xmlns="http://www.w3.org/2000/svg" width="1024" height="1024" viewBox="0 0 1024 1024"><path d="M513.43 26.233c-276.486 0-500.622 221.497-500.622 494.73 0 245.8 181.377 449.705 419.086 488.18l1.988-170.615c-.36-114.206-87.025-142.83-135.832-223.18-47.932-78.862 19.106-234.354 28.97-261.17 9.813-26.665 35.278-11.86 37.693-.404 2.312 11.56 25.694 98.316 35.044 128.32 9.35 29.795 17.945 79.468 118.64 62.207 96.74-16.693 86.51-87.532 78.187-120.514-8.273-33.137-23.788-109.27-27.792-126.74-3.956-17.618 3.837-36.115 33.018-14.54 29.233 21.528 131.37 115.455 153.206 186.814 24.403 79.68 10.215 156.933-92.69 221.816-48.033 30.263-71.46 93.242-71.41 133.88l.074 184.752c239.65-36.838 423.06-241.642 423.06-488.804 0-273.232-224.135-494.73-500.62-494.73z" fill="#2bb6f6"/><path d="M363.188 349.78l-.313 2.5c.22.568.414 1.132.53 1.69 2.324 11.61 25.827 98.766 35.22 128.905 9.393 29.932 18.006 79.84 119.156 62.5 12.38-2.137 23.01-5.164 32.128-8.875l-186.72-186.72zm342.562 36.126c22.43 27.916 41.597 57.58 49.72 84.125 24.512 80.047 10.275 157.667-93.095 222.847-48.253 30.397-71.77 93.647-71.72 134.47l.095 181.342c188.694-29.09 342.407-162.616 398.813-338.97L705.75 385.906z" fill="#0aa4ea"/></svg>