<svg version="1.1" xmlns="http://www.w3.org/2000/svg" xmlns:xlink="http://www.w3.org/1999/xlink" viewBox="0 0 16 16" width="16" height="16">
  <path
    d="m 8.0000126,0.21832325 c -4.3750641,0 -7.92175104,3.50492865 -7.92175104,7.82851725 0,3.8894945 2.87007684,7.1160505 6.63154034,7.7248715 L 6.7412579,13.07193 C 6.7355605,11.264756 5.3641903,10.811815 4.591877,9.5403709 3.8334098,8.2924741 4.8942067,5.8319964 5.050293,5.4076639 5.205572,4.9857227 5.6085258,5.2199942 5.6467399,5.4012871 5.6833241,5.5842112 6.053317,6.957022 6.2012701,7.4317991 6.3492227,7.9032704 6.4852285,8.6892878 8.0786076,8.4161518 9.6094038,8.1520368 9.4475263,7.0311079 9.3158247,6.509191 9.1849139,5.9848376 8.9394074,4.780122 8.8760487,4.5036803 8.8134493,4.2248947 8.9367649,3.9322035 9.3985196,4.273602 c 0.4625778,0.3406547 2.0787754,1.8269382 2.4243034,2.9561107 0.386149,1.2608417 0.16164,2.4832941 -1.46671,3.5099913 -0.7600643,0.478877 -1.1307692,1.475444 -1.129978,2.118492 l 0.00118,2.923481 c 3.792177,-0.58295 6.694423,-3.823714 6.694423,-7.7347614 0,-4.3235722 -3.546671,-7.82851655 -7.9217186,-7.82851655 z" />
</svg>
