<svg xmlns="http://www.w3.org/2000/svg" viewBox="0 0 94 265.25" with="94" height="265.25">
	<style type="text/css">
		@import url("https://fonts.googleapis.com/css2?family=Roboto+Slab:wght@700");
		
		text {
			font-family: 'Roboto Slab';
			font-weight: 700;
			fill: rgba(127, 127, 127, 0.1);
		}
	</style>

	<g transform="rotate(-31.9)">
		<text x="-20" y="0">404</text>
		<text x="20" y="0">404</text>

		<text x="-20" y="25">404</text>
		<text x="20" y="25">404</text>

		<text x="-40" y="50">404</text>
		<text x="0" y="50">404</text>
		<text x="40" y="50">404</text>

		<text x="-60" y="75">404</text>
		<text x="-20" y="75">404</text>
		<text x="20" y="75">404</text>
		<text x="60" y="75">404</text>

		<text x="-80" y="100">404</text>
		<text x="-40" y="100">404</text>
		<text x="0" y="100">404</text>
		<text x="40" y="100">404</text>

		<text x="-100" y="125">404</text>
		<text x="-60" y="125">404</text>
		<text x="-20" y="125">404</text>
		<text x="20" y="125">404</text>

		<text x="-120" y="150">404</text>
		<text x="-80" y="150">404</text>
		<text x="-40" y="150">404</text>
		<text x="0" y="150">404</text>
		
		<text x="-140" y="175">404</text>
		<text x="-100" y="175">404</text>
		<text x="-60" y="175">404</text>
		<text x="-20" y="175">404</text>

		<text x="-120" y="200">404</text>
		<text x="-80" y="200">404</text>
		<text x="-40" y="200">404</text>
		<text x="0" y="200">404</text>

		<text x="-140" y="225">404</text>
		<text x="-100" y="225">404</text>
		<text x="-60" y="225">404</text>
		<text x="-20" y="225">404</text>

		<text x="-160" y="250">404</text>
		<text x="-120" y="250">404</text>
		<text x="-80" y="250">404</text>
		<text x="-40" y="250">404</text>

		<text x="-180" y="275">404</text>
		<text x="-140" y="275">404</text>
		<text x="-100" y="275">404</text>
		<text x="-60" y="275">404</text>

		<text x="-200" y="300">404</text>
		<text x="-160" y="300">404</text>
		<text x="-120" y="300">404</text>
		<text x="-80" y="300">404</text>
	</g>
</svg>
